<svg data-v-29081953="" xmlns="http://www.w3.org/2000/svg" viewBox="0 0 300 300"><!----><defs data-v-29081953=""><!----></defs><rect data-v-29081953="" fill="transparent" x="0" y="0" width="300px" height="300px" class="logo-background-square"></rect><defs data-v-29081953=""><!----></defs><g data-v-29081953="" id="bd1c2e4e-15e4-450b-b85a-2d6f75fdd3ea" fill="#000000" transform="matrix(2.7351857094326735,0,0,2.7351857094326735,100.42926904402637,115.08245782188163)"><path d="M7.46 14L8.92 14L4.58 4.06L4.38 4.06L0.06 14L1.53 14L2.39 11.91L6.59 11.91ZM2.93 10.63L4.49 6.85L6.06 10.63ZM16.67 4.20L16.67 11.07L10.19 4.05L10.01 4.05L10.01 14L11.33 14L11.33 7.27L17.81 14.17L17.99 14.17L17.99 4.20ZM22.89 4.20L20.31 4.20L20.31 14L22.89 14C25.97 14 27.80 11.79 27.80 9.07C27.80 6.37 25.97 4.20 22.89 4.20ZM22.90 12.70L21.64 12.70L21.64 5.50L22.90 5.50C25.14 5.50 26.46 7.07 26.46 9.07C26.46 11.03 25.14 12.70 22.90 12.70ZM36.09 4.20L34.61 4.20L32.10 9.17L29.61 4.20L28.11 4.20L31.44 10.56L31.44 14L32.77 14L32.77 10.53ZM39.66 4.05L36.58 5.98L37.18 7.07L38.49 6.27L38.49 14L39.80 14L39.80 4.05ZM44.59 4.20L42.01 4.20L42.01 14L44.59 14C47.67 14 49.50 11.79 49.50 9.07C49.50 6.37 47.67 4.20 44.59 4.20ZM44.60 12.70L43.34 12.70L43.34 5.50L44.60 5.50C46.84 5.50 48.16 7.07 48.16 9.07C48.16 11.03 46.84 12.70 44.60 12.70ZM58.34 14L54.98 9.09L58.24 4.20L56.70 4.20L54.19 8.09L51.69 4.20L50.15 4.20L53.40 9.09L50.05 14L51.63 14L54.19 10.08L56.76 14Z"></path></g><defs data-v-29081953=""><linearGradient data-v-29081953="" gradientTransform="rotate(25)" id="7e4c74f2-462f-4d54-a8a5-488b09cee1fa" x1="0%" y1="0%" x2="100%" y2="0%"><stop data-v-29081953="" offset="0%" stop-color="#0D7CE9" stop-opacity="1"></stop><stop data-v-29081953="" offset="100%" stop-color="#15CFF1" stop-opacity="1"></stop></linearGradient></defs><g data-v-29081953="" id="c9dd8fe8-1155-4904-9622-870436ee732a" stroke="none" fill="url(#7e4c74f2-462f-4d54-a8a5-488b09cee1fa)" transform="matrix(0.12164657609861082,0,0,0.12164657609861082,32.652546618025966,118.85847651875562)"><path d="M241.4 58.8c3.3 0 6-2.7 6-6V17c0-3.3-2.7-6-6-6s-6 2.7-6 6v35.8c0 3.3 2.7 6 6 6zM366 187.7c0 3.3 2.7 6 6 6h35.8c3.3 0 6-2.7 6-6s-2.7-6-6-6H372c-3.3 0-6 2.7-6 6zM102.2 181.7H66.4c-3.3 0-6 2.7-6 6s2.7 6 6 6h35.8c3.3 0 6-2.7 6-6s-2.7-6-6-6zM335.1 95.7c1.6 0 3.1-.6 4.2-1.8l28-28c2.3-2.4 2.3-6.2-.1-8.5-2.3-2.3-6-2.3-8.4 0l-28 28c-2.3 2.3-2.3 6.1 0 8.5 1.2 1.2 2.7 1.8 4.3 1.8zM106.9 66l28 28c2.3 2.4 6.1 2.4 8.5.1 2.4-2.3 2.4-6.1.1-8.5l-.1-.1-28-28c-2.3-2.4-6.1-2.4-8.5-.1-2.4 2.4-2.4 6.2 0 8.6z"></path><circle cx="275.3" cy="402.7" r="6.1"></circle><circle cx="356.6" cy="324.5" r="6.1"></circle><path d="M190.7 403.8v1.7c0 6.6 5.3 11.9 11.9 11.9h34.8c-.7-4.5-1.2-9.1-1.4-13.6h-45.3zM397.9 370.5c0-3.3-2.7-6.1-6.1-6.1-3.3 0-6.1 2.7-6.1 6.1 0 3.3 2.7 6.1 6.1 6.1 3.4 0 6.1-2.8 6.1-6.1zM190.7 366.2h14.6c3.3 0 6 2.7 6 6s-2.7 6-6 6h-14.6v13.6h45.5c.3-4.6.9-9.1 1.7-13.6h-14.1c-3.3 0-6-2.7-6-6s2.7-6 6-6h17c1.3-4.4 2.9-8.6 4.7-12.8h-54.9v12.8zM299.2 297.2c3.8-5.6 8.3-10.8 13.2-15.4 44.6-41.6 47.1-111.5 5.5-156.1-41.6-44.6-111.5-47.1-156.1-5.5-44.6 41.6-47.1 111.5-5.5 156.1 2 2.1 4 4.1 6.1 6.1 16.6 15.3 26.6 36.5 28.1 59h61.2c11.3-19 27.7-34.3 47.5-44.2z"></path><path d="M431.5 338.4c-19.2-25.8-49.5-41.1-81.7-41.1-56.2 0-101.8 45.5-101.8 101.8 0 32.4 15.4 62.9 41.6 82.1v-32.3l-16.5-6.6c-2.3-.9-3.8-3.1-3.8-5.6v-17.1c-9.4-3.3-14.3-13.6-11-23 3.3-9.4 13.6-14.3 23-11 9.4 3.3 14.3 13.6 11 23-1.8 5.2-5.9 9.2-11 11v13l16.5 6.6c2.3.9 3.8 3.1 3.8 5.6v44c5.8 3.1 11.8 5.7 18.1 7.6V411l-16.5-16.5c-1.1-1.1-1.8-2.6-1.8-4.2v-11.9c-9.4-3.3-14.3-13.6-11-23 3.3-9.4 13.6-14.3 23-11 9.4 3.3 14.3 13.6 11 23-1.8 5.2-5.9 9.2-11 11v9.4l16.5 16.5c1.1 1.1 1.8 2.7 1.8 4.2v90.9c1.9.3 3.8.6 5.8.9v-66.7c0-1.6.6-3.1 1.8-4.2l11.4-11.4v-76.5c-9.4-3.3-14.3-13.6-11-23 3.3-9.4 13.6-14.3 23-11 9.4 3.3 14.3 13.6 11 23-1.8 5.2-5.9 9.2-11 11v79c0 1.6-.6 3.1-1.8 4.2l-11.4 11.4V501h.3c4.8 0 9.6-.3 14.4-1v-51.1c0-1.3.4-2.5 1.2-3.5l20.5-28.1v-29.7c-9.4-3.3-14.3-13.6-11-23 3.3-9.4 13.6-14.3 23-11 9.4 3.3 14.3 13.6 11 23-1.8 5.2-5.9 9.2-11 11v31.6c0 1.3-.4 2.5-1.2 3.5l-20.5 28.1v46.7c7.8-2.1 15.3-5.1 22.3-9v-22.8c0-1.6.7-3.2 1.9-4.4l13.8-13.1v-9c-9.4-3.3-14.3-13.6-11-23 3.3-9.4 13.6-14.3 23-11 9.4 3.3 14.3 13.6 11 23-1.8 5.2-5.9 9.2-11 11v11.5c0 1.6-.7 3.2-1.9 4.4l-13.8 13.1v12.5c45.2-33.4 54.6-97.2 21-142.3z"></path><circle cx="420.2" cy="422.3" r="6.1"></circle><path d="M313.4 361.3c0-3.3-2.7-6.1-6.1-6.1-3.3 0-6.1 2.7-6.1 6.1 0 3.3 2.7 6.1 6.1 6.1 3.4 0 6.1-2.7 6.1-6.1z"></path></g><defs data-v-29081953=""><!----></defs><g data-v-29081953="" id="142566e1-f855-44e0-a47f-0908891def82" fill="#000000" transform="matrix(0.45794656980647797,0,0,0.45794656980647797,100.35524798554879,162.5119944371088)"><path d="M0.52 12.39C0.52 12.63 0.55 12.68 0.74 12.68C1.06 12.68 2.03 12.64 2.45 12.64C2.87 12.64 7.22 12.68 7.55 12.68C7.81 12.68 7.88 12.66 7.90 12.49C7.95 12.08 8.19 10.72 8.19 10.60C8.19 10.47 8.04 10.44 7.87 10.43C7.77 10.42 7.69 10.46 7.67 10.56L7.50 11.76C7.46 12.05 7.45 12.03 7.22 12.04C7.07 12.05 4.56 12.12 3.14 12.12C3.09 12.12 3.05 11.38 3.05 10.54L3.05 6.66C3.05 5.40 3.07 3.70 3.16 3.70L4.14 3.70C4.38 3.70 4.41 3.63 4.41 3.44C4.41 3.23 4.40 3.19 4.16 3.19C3.84 3.19 2.90 3.23 2.48 3.23C2.06 3.23 1.12 3.19 0.90 3.19C0.67 3.19 0.62 3.22 0.62 3.44C0.62 3.65 0.66 3.70 0.85 3.70L1.68 3.70C1.72 3.70 1.75 4.23 1.75 4.90L1.75 8.13C1.75 10.07 1.72 12.18 1.64 12.18L0.80 12.18C0.57 12.18 0.52 12.21 0.52 12.39ZM15.81 12.39C15.81 12.63 15.83 12.68 16.03 12.68C16.35 12.68 17.32 12.64 17.74 12.64C18.16 12.64 22.67 12.68 22.99 12.68C23.11 12.68 23.27 12.66 23.27 12.49C23.27 12.07 23.31 11.23 23.31 10.53C23.31 10.39 23.16 10.39 23.03 10.39C22.92 10.39 22.79 10.39 22.79 10.51C22.78 11.06 22.78 11.41 22.75 11.76C22.72 12.01 22.72 12.04 22.62 12.04C22.47 12.04 19.84 12.08 18.34 12.08C18.27 12.08 18.23 10.11 18.19 8.26C18.19 8.06 18.23 8.09 18.37 8.09L20.65 8.09C21.35 8.09 21.38 8.20 21.38 8.30L21.38 9.00C21.38 9.14 21.56 9.14 21.67 9.14C21.77 9.14 21.90 9.13 21.90 9.02C21.90 8.83 21.87 8.33 21.87 7.83C21.87 7.32 21.90 6.83 21.90 6.71C21.90 6.59 21.76 6.58 21.66 6.58C21.55 6.58 21.38 6.59 21.38 6.72L21.38 7.45C21.38 7.62 20.93 7.63 20.65 7.63L18.31 7.63C18.20 7.63 18.19 7.63 18.19 7.45C18.17 6.75 18.16 6.06 18.16 5.46C18.16 5.12 18.16 3.71 18.24 3.71C19.47 3.71 21.98 3.75 21.98 3.81C21.98 3.99 21.94 4.83 21.94 4.89C21.94 5.04 22.01 5.10 22.19 5.10C22.39 5.10 22.46 5.08 22.46 4.94C22.46 3.85 22.51 3.36 22.51 3.09C22.51 2.91 22.43 2.90 22.23 2.90C22.04 2.90 22.04 2.95 22.01 3.11C21.99 3.25 22.06 3.25 21.15 3.25C20.54 3.25 18.40 3.29 17.63 3.29C17.14 3.29 16.20 3.25 16.10 3.25C15.97 3.25 15.92 3.30 15.92 3.49C15.92 3.72 15.99 3.74 16.16 3.74L16.81 3.74C16.87 3.74 16.94 4.79 16.94 5.71C16.94 5.80 17.00 8.27 17.00 9.83L17.00 11.17C17.00 11.84 16.97 12.18 16.94 12.18L16.09 12.18C15.86 12.18 15.81 12.21 15.81 12.39ZM31.14 12.39C31.14 12.63 31.14 12.68 31.33 12.68C31.50 12.68 31.82 12.64 32.40 12.64C33.01 12.64 33.56 12.68 33.71 12.68C33.88 12.68 33.88 12.61 33.88 12.40C33.88 12.24 33.88 12.18 33.71 12.18L32.63 12.18C32.63 12.18 32.62 12.18 32.62 12.17C32.63 11.87 33.40 9.90 33.75 9.02C33.82 8.83 33.84 8.79 34.05 8.79L36.88 8.79C37.02 8.79 37.02 8.81 37.09 9.03C37.35 9.77 38.07 11.89 38.07 12.17C38.07 12.18 38.05 12.18 38.05 12.18L37.28 12.18C37.06 12.18 37.04 12.19 37.04 12.39C37.04 12.63 37.06 12.68 37.23 12.68C37.55 12.68 38.42 12.64 38.84 12.64C39.26 12.64 39.93 12.68 40.14 12.68C40.28 12.68 40.29 12.61 40.29 12.40C40.29 12.24 40.28 12.18 40.14 12.18L39.65 12.18C39.55 12.18 38.53 9.34 37.97 7.78L36.29 3.07C36.27 3.00 36.20 2.94 36.12 2.94C35.99 2.94 35.90 3.16 35.81 3.35C35.66 3.71 35.42 3.84 35.31 4.13L33.82 7.57C33.64 8.01 31.93 12.18 31.81 12.18L31.39 12.18C31.16 12.18 31.14 12.19 31.14 12.39ZM34.03 8.33C34.03 8.30 34.06 8.23 34.10 8.13L35.48 4.77C35.52 4.66 35.55 4.61 35.57 4.61C35.59 4.61 35.60 4.63 35.64 4.77L36.81 8.18C36.83 8.25 36.85 8.29 36.85 8.32C36.85 8.36 36.82 8.37 36.72 8.37L34.22 8.37C34.03 8.37 34.03 8.34 34.03 8.33ZM48.05 3.51C48.05 3.72 48.12 3.79 48.31 3.79L49.13 3.77C49.22 3.77 49.27 6.61 49.27 8.55L49.27 10.42C49.27 11.30 49.25 12.18 49.21 12.18L48.61 12.18C48.38 12.18 48.31 12.19 48.31 12.39C48.31 12.63 48.36 12.68 48.55 12.68C48.68 12.68 49.50 12.64 49.92 12.64C50.34 12.64 51.11 12.68 51.44 12.68C51.60 12.68 51.63 12.61 51.63 12.40C51.63 12.24 51.60 12.18 51.44 12.18L50.62 12.18C50.55 12.18 50.47 9.18 50.47 8.37C50.47 8.30 50.47 8.26 50.58 8.26C50.97 8.26 51.58 8.27 51.87 8.27C54.11 8.32 54.25 10.00 54.25 11.68L54.25 12.49C54.25 12.61 54.31 12.64 54.40 12.64C54.40 12.64 55.85 12.68 56.32 12.68C56.49 12.68 56.55 12.64 56.55 12.53C56.55 12.24 56.49 12.18 56.34 12.18L55.69 12.18C55.59 12.18 55.57 12.14 55.54 11.31C55.45 8.99 54.08 8.34 53.17 8.05C53.03 8.01 53.06 8.01 53.17 7.95C53.76 7.69 55.08 6.94 55.08 5.63C55.08 3.63 53.38 3.21 51.98 3.21C51.66 3.21 50.37 3.29 49.95 3.29C49.53 3.29 48.55 3.26 48.33 3.26C48.15 3.26 48.05 3.28 48.05 3.51ZM50.47 7.80L50.47 4.40C50.47 4.05 50.50 3.68 50.54 3.68C50.75 3.65 51.03 3.65 51.25 3.65C52.56 3.65 53.80 4.47 53.80 5.82C53.80 6.99 53.26 7.57 52.60 7.88C52.56 7.90 52.51 7.90 52.44 7.90C51.97 7.88 51.25 7.88 50.65 7.87C50.48 7.87 50.47 7.85 50.47 7.80ZM64.02 12.39C64.02 12.63 64.04 12.68 64.23 12.68C64.41 12.68 64.79 12.64 65.41 12.64C66.04 12.64 66.60 12.68 66.92 12.68C67.09 12.68 67.09 12.61 67.09 12.40C67.09 12.24 67.09 12.18 66.92 12.18L65.72 12.18C65.67 12.18 65.66 11.54 65.66 10.79C65.66 9.46 65.67 7.48 65.67 5.99C65.67 5.25 65.67 4.84 65.69 4.28C65.69 4.02 65.76 4.14 65.88 4.28L72.77 12.66C72.86 12.75 72.94 12.89 73.05 12.89C73.16 12.89 73.23 12.77 73.23 12.54C73.23 12.39 73.40 6.65 73.42 4.48C73.42 4.06 73.44 3.70 73.47 3.70L74.10 3.70C74.33 3.70 74.38 3.68 74.38 3.49C74.38 3.25 74.38 3.19 74.19 3.19C73.99 3.19 73.56 3.23 73.00 3.23C72.38 3.23 71.58 3.19 71.48 3.19C71.32 3.19 71.32 3.26 71.32 3.47C71.32 3.64 71.32 3.70 71.48 3.70L72.79 3.70C72.80 3.70 72.80 4.33 72.80 4.44C72.80 5.85 72.83 8.33 72.83 9.70L72.83 10.29C72.83 10.57 72.81 10.65 72.59 10.37L66.91 3.39C66.79 3.25 66.77 3.19 66.60 3.19C66.51 3.19 66.14 3.23 65.83 3.23C65.53 3.23 64.46 3.19 64.26 3.19C64.09 3.19 64.06 3.26 64.06 3.47C64.06 3.64 64.09 3.70 64.26 3.70L65.17 3.70C65.17 4.17 65.13 8.53 65.06 10.79C65.03 11.69 65.04 12.18 64.93 12.18L64.29 12.18C64.06 12.18 64.02 12.19 64.02 12.39ZM82.28 12.39C82.28 12.63 82.32 12.68 82.52 12.68C82.84 12.68 83.59 12.64 84.31 12.64C84.97 12.64 85.76 12.68 85.99 12.68C86.16 12.68 86.18 12.61 86.18 12.40C86.18 12.24 86.16 12.18 85.99 12.18L85.02 12.18C84.92 12.18 84.90 9.55 84.90 7.76L84.90 5.87C84.90 5.14 84.92 3.70 85.02 3.70L85.93 3.70C86.16 3.70 86.18 3.68 86.18 3.49C86.18 3.25 86.16 3.19 85.99 3.19C85.67 3.19 84.99 3.23 84.34 3.23C83.52 3.23 82.81 3.19 82.59 3.19C82.40 3.19 82.33 3.21 82.33 3.44C82.33 3.68 82.42 3.70 82.59 3.70L83.51 3.70C83.55 3.70 83.62 4.79 83.62 5.71L83.62 7.08C83.62 8.92 83.61 12.18 83.50 12.18L82.57 12.18C82.35 12.18 82.28 12.19 82.28 12.39ZM94.08 12.39C94.08 12.63 94.09 12.68 94.29 12.68C94.47 12.68 94.85 12.64 95.47 12.64C96.10 12.64 96.66 12.68 96.98 12.68C97.15 12.68 97.15 12.61 97.15 12.40C97.15 12.24 97.15 12.18 96.98 12.18L95.77 12.18C95.73 12.18 95.72 11.54 95.72 10.79C95.72 9.46 95.73 7.48 95.73 5.99C95.73 5.25 95.73 4.84 95.75 4.28C95.75 4.02 95.82 4.14 95.94 4.28L102.83 12.66C102.91 12.75 103.00 12.89 103.11 12.89C103.22 12.89 103.29 12.77 103.29 12.54C103.29 12.39 103.46 6.65 103.47 4.48C103.47 4.06 103.50 3.70 103.53 3.70L104.16 3.70C104.38 3.70 104.44 3.68 104.44 3.49C104.44 3.25 104.44 3.19 104.24 3.19C104.05 3.19 103.61 3.23 103.05 3.23C102.44 3.23 101.64 3.19 101.54 3.19C101.37 3.19 101.37 3.26 101.37 3.47C101.37 3.64 101.37 3.70 101.54 3.70L102.84 3.70C102.86 3.70 102.86 4.33 102.86 4.44C102.86 5.85 102.89 8.33 102.89 9.70L102.89 10.29C102.89 10.57 102.87 10.65 102.65 10.37L96.96 3.39C96.85 3.25 96.82 3.19 96.66 3.19C96.57 3.19 96.19 3.23 95.89 3.23C95.59 3.23 94.51 3.19 94.32 3.19C94.15 3.19 94.12 3.26 94.12 3.47C94.12 3.64 94.15 3.70 94.32 3.70L95.23 3.70C95.23 4.17 95.19 8.53 95.12 10.79C95.09 11.69 95.10 12.18 94.99 12.18L94.35 12.18C94.12 12.18 94.08 12.19 94.08 12.39ZM112.55 7.91C112.55 11.40 114.91 12.89 117.50 12.89C119.39 12.89 121.39 11.89 121.39 11.58C121.39 11.12 121.41 10.68 121.41 10.33C121.41 9.81 121.42 9.56 121.55 9.56L121.98 9.56C122.12 9.56 122.14 9.39 122.14 9.30C122.14 9.18 122.12 9.06 121.98 9.06C121.76 9.06 121.39 9.10 120.72 9.10C120.27 9.10 119.53 9.07 118.85 9.06C118.71 9.06 118.71 9.24 118.71 9.35C118.71 9.45 118.73 9.56 118.86 9.56L120.08 9.56C120.12 9.56 120.18 9.87 120.18 10.33C120.18 10.82 120.16 11.41 120.13 11.65C120.12 11.76 119.48 12.39 117.89 12.39C115.65 12.39 114.06 10.29 114.06 7.94C114.06 5.42 115.61 3.54 117.61 3.54C119.50 3.54 120.68 4.87 120.68 5.03C120.68 5.15 120.62 6.12 120.62 6.17C120.62 6.31 120.67 6.36 120.93 6.36C121.13 6.36 121.20 6.33 121.20 6.15C121.20 5.43 121.24 3.75 121.24 3.56C121.24 3.36 121.14 3.33 120.93 3.33C120.71 3.33 120.68 3.39 120.68 3.56L120.68 3.91C120.68 3.99 120.64 4.02 120.51 3.92C120.23 3.72 119.24 3.08 117.67 3.08C114.83 3.08 112.55 4.79 112.55 7.91ZM139.97 12.39C139.97 12.63 140 12.68 140.20 12.68C140.52 12.68 141.48 12.64 141.90 12.64C142.32 12.64 146.68 12.68 147 12.68C147.27 12.68 147.34 12.66 147.35 12.49C147.41 12.08 147.64 10.72 147.64 10.60C147.64 10.47 147.49 10.44 147.32 10.43C147.22 10.42 147.14 10.46 147.13 10.56L146.96 11.76C146.92 12.05 146.90 12.03 146.68 12.04C146.52 12.05 144.02 12.12 142.59 12.12C142.55 12.12 142.51 11.38 142.51 10.54L142.51 6.66C142.51 5.40 142.52 3.70 142.62 3.70L143.60 3.70C143.84 3.70 143.86 3.63 143.86 3.44C143.86 3.23 143.85 3.19 143.61 3.19C143.29 3.19 142.35 3.23 141.93 3.23C141.51 3.23 140.57 3.19 140.35 3.19C140.13 3.19 140.07 3.22 140.07 3.44C140.07 3.65 140.11 3.70 140.31 3.70L141.13 3.70C141.18 3.70 141.20 4.23 141.20 4.90L141.20 8.13C141.20 10.07 141.18 12.18 141.09 12.18L140.25 12.18C140.03 12.18 139.97 12.21 139.97 12.39ZM155.12 12.39C155.12 12.63 155.16 12.68 155.36 12.68C155.68 12.68 156.44 12.64 157.15 12.64C157.81 12.64 158.61 12.68 158.83 12.68C159.00 12.68 159.03 12.61 159.03 12.40C159.03 12.24 159.00 12.18 158.83 12.18L157.86 12.18C157.77 12.18 157.74 9.55 157.74 7.76L157.74 5.87C157.74 5.14 157.77 3.70 157.86 3.70L158.77 3.70C159.00 3.70 159.03 3.68 159.03 3.49C159.03 3.25 159.00 3.19 158.83 3.19C158.51 3.19 157.84 3.23 157.18 3.23C156.37 3.23 155.65 3.19 155.43 3.19C155.25 3.19 155.18 3.21 155.18 3.44C155.18 3.68 155.26 3.70 155.43 3.70L156.35 3.70C156.39 3.70 156.46 4.79 156.46 5.71L156.46 7.08C156.46 8.92 156.45 12.18 156.34 12.18L155.41 12.18C155.19 12.18 155.12 12.19 155.12 12.39ZM166.92 3.49C166.92 3.72 167.03 3.74 167.20 3.74L167.82 3.74C167.87 3.74 167.94 4.79 167.94 5.71C167.94 5.80 168.00 8.27 168.00 9.83L168.00 11.17C168.00 11.84 167.99 12.18 167.93 12.18L167.34 12.18C167.12 12.18 167.05 12.19 167.05 12.39C167.05 12.63 167.06 12.68 167.26 12.68C167.47 12.68 168.31 12.64 168.73 12.64C169.15 12.64 170.09 12.68 170.41 12.68C170.58 12.68 170.60 12.61 170.60 12.40C170.60 12.24 170.58 12.18 170.41 12.18L169.27 12.18C169.22 12.18 169.23 10.16 169.19 8.33C169.19 8.08 169.18 8.09 169.37 8.09L171.79 8.09C172.49 8.09 172.52 8.19 172.52 8.30L172.52 9.16C172.52 9.28 172.70 9.28 172.82 9.28C172.91 9.28 173.04 9.28 173.04 9.17C173.04 8.99 173.01 8.33 173.01 7.83C173.01 7.32 173.04 6.82 173.04 6.69C173.04 6.58 172.93 6.58 172.80 6.58C172.63 6.58 172.52 6.58 172.52 6.71L172.52 7.45C172.52 7.62 172.07 7.63 171.79 7.63L169.37 7.63C169.16 7.63 169.19 7.66 169.19 7.45C169.18 7.13 169.16 6.15 169.16 5.26C169.16 4.52 169.18 3.71 169.25 3.71C170.65 3.71 172.83 3.75 173.12 3.79C173.12 3.96 173.08 4.82 173.08 4.89C173.08 5.04 173.15 5.10 173.33 5.10C173.53 5.10 173.60 5.08 173.60 4.94C173.60 3.85 173.66 3.36 173.66 3.09C173.66 2.93 173.57 2.90 173.38 2.90C173.25 2.90 173.18 2.90 173.15 3.11C173.14 3.25 173.21 3.25 172.26 3.25C171.65 3.25 169.37 3.29 168.63 3.29C168.14 3.29 167.20 3.25 167.10 3.25C166.98 3.25 166.92 3.30 166.92 3.49ZM181.62 12.39C181.62 12.63 181.65 12.68 181.85 12.68C182.17 12.68 183.13 12.64 183.55 12.64C183.97 12.64 188.48 12.68 188.80 12.68C188.93 12.68 189.08 12.66 189.08 12.49C189.08 12.07 189.13 11.23 189.13 10.53C189.13 10.39 188.97 10.39 188.85 10.39C188.73 10.39 188.61 10.39 188.61 10.51C188.59 11.06 188.59 11.41 188.57 11.76C188.54 12.01 188.54 12.04 188.44 12.04C188.29 12.04 185.65 12.08 184.16 12.08C184.09 12.08 184.04 10.11 184.00 8.26C184.00 8.06 184.04 8.09 184.18 8.09L186.47 8.09C187.17 8.09 187.19 8.20 187.19 8.30L187.19 9.00C187.19 9.14 187.38 9.14 187.49 9.14C187.59 9.14 187.71 9.13 187.71 9.02C187.71 8.83 187.68 8.33 187.68 7.83C187.68 7.32 187.71 6.83 187.71 6.71C187.71 6.59 187.57 6.58 187.47 6.58C187.36 6.58 187.19 6.59 187.19 6.72L187.19 7.45C187.19 7.62 186.75 7.63 186.47 7.63L184.13 7.63C184.02 7.63 184.00 7.63 184.00 7.45C183.99 6.75 183.97 6.06 183.97 5.46C183.97 5.12 183.97 3.71 184.06 3.71C185.29 3.71 187.80 3.75 187.80 3.81C187.80 3.99 187.75 4.83 187.75 4.89C187.75 5.04 187.82 5.10 188.01 5.10C188.20 5.10 188.27 5.08 188.27 4.94C188.27 3.85 188.33 3.36 188.33 3.09C188.33 2.91 188.24 2.90 188.05 2.90C187.85 2.90 187.85 2.95 187.82 3.11C187.81 3.25 187.88 3.25 186.97 3.25C186.35 3.25 184.21 3.29 183.44 3.29C182.95 3.29 182.01 3.25 181.92 3.25C181.79 3.25 181.73 3.30 181.73 3.49C181.73 3.72 181.80 3.74 181.97 3.74L182.63 3.74C182.69 3.74 182.76 4.79 182.76 5.71C182.76 5.80 182.81 8.27 182.81 9.83L182.81 11.17C182.81 11.84 182.78 12.18 182.76 12.18L181.90 12.18C181.68 12.18 181.62 12.21 181.62 12.39ZM206.96 7.91C206.96 11.31 209.33 12.87 211.92 12.87C213.70 12.87 215.47 11.90 215.52 11.59C215.68 10.29 215.74 9.70 215.74 9.66C215.74 9.56 215.70 9.52 215.53 9.51C215.47 9.51 215.42 9.49 215.38 9.49C215.26 9.49 215.21 9.53 215.18 9.70L215.00 11.33C214.98 11.45 213.88 12.24 212.31 12.24C210.18 12.24 208.47 10.29 208.47 7.94C208.47 5.42 209.90 3.54 211.90 3.54C213.75 3.54 215.10 5.01 215.10 5.17C215.10 5.29 215.04 6.40 215.04 6.45C215.04 6.59 215.08 6.64 215.35 6.64C215.54 6.64 215.61 6.62 215.61 6.44C215.61 5.73 215.67 3.92 215.67 3.67C215.67 3.47 215.56 3.44 215.35 3.44C215.12 3.44 215.10 3.50 215.10 3.67L215.10 4.05C215.10 4.16 215.05 4.16 214.93 4.06C214.65 3.86 213.67 3.04 212.00 3.04C209.16 3.04 206.96 4.96 206.96 7.91ZM224.13 12.39C224.13 12.63 224.13 12.68 224.32 12.68C224.64 12.68 225.58 12.64 226.00 12.64C226.42 12.64 227.25 12.68 227.57 12.68C227.74 12.68 227.74 12.61 227.74 12.40C227.74 12.24 227.74 12.18 227.57 12.18L226.65 12.18C226.56 12.18 226.52 9.93 226.52 8.20C226.52 8.01 226.52 8.01 226.65 8.01L231.88 8.01C231.95 8.01 231.97 8.01 231.97 8.18L231.97 9.91C231.97 11.05 231.95 12.18 231.90 12.18L231.13 12.18C230.90 12.18 230.86 12.19 230.86 12.39C230.86 12.63 230.87 12.68 231.07 12.68C231.39 12.68 232.23 12.64 232.65 12.64C233.07 12.64 233.66 12.68 233.98 12.68C234.15 12.68 234.16 12.61 234.16 12.40C234.16 12.24 234.15 12.18 233.98 12.18L233.24 12.18C233.20 12.18 233.18 9.27 233.18 7.04C233.18 5.40 233.18 3.70 233.23 3.70L233.84 3.70C234.07 3.70 234.11 3.68 234.11 3.49C234.11 3.25 234.09 3.19 233.90 3.19C233.76 3.19 233.13 3.23 232.54 3.23C231.87 3.23 231.27 3.19 231.04 3.19C230.85 3.19 230.82 3.22 230.82 3.44C230.82 3.67 230.89 3.70 231.06 3.70L231.85 3.70C231.91 3.70 231.97 4.79 231.97 5.71L231.97 7.42C231.97 7.59 231.97 7.59 231.80 7.59L226.69 7.59C226.52 7.59 226.52 7.59 226.52 7.38C226.52 6.96 226.51 6.23 226.51 5.53C226.51 4.66 226.52 3.70 226.58 3.70L227.35 3.70C227.57 3.70 227.61 3.68 227.61 3.49C227.61 3.25 227.60 3.19 227.40 3.19C227.08 3.19 226.49 3.23 225.89 3.23C225.30 3.23 224.81 3.19 224.59 3.19C224.41 3.19 224.31 3.21 224.31 3.44C224.31 3.68 224.42 3.70 224.59 3.70L225.20 3.70C225.26 3.70 225.27 5.59 225.27 7.18L225.27 8.61C225.27 10.08 225.26 12.18 225.19 12.18L224.38 12.18C224.15 12.18 224.13 12.19 224.13 12.39ZM242.06 12.39C242.06 12.63 242.06 12.68 242.26 12.68C242.42 12.68 242.75 12.64 243.32 12.64C243.94 12.64 244.48 12.68 244.64 12.68C244.80 12.68 244.80 12.61 244.80 12.40C244.80 12.24 244.80 12.18 244.64 12.18L243.56 12.18C243.56 12.18 243.54 12.18 243.54 12.17C243.56 11.87 244.33 9.90 244.68 9.02C244.75 8.83 244.76 8.79 244.97 8.79L247.80 8.79C247.94 8.79 247.94 8.81 248.01 9.03C248.28 9.77 248.99 11.89 248.99 12.17C248.99 12.18 248.98 12.18 248.98 12.18L248.21 12.18C247.98 12.18 247.97 12.19 247.97 12.39C247.97 12.63 247.98 12.68 248.15 12.68C248.47 12.68 249.34 12.64 249.76 12.64C250.18 12.64 250.85 12.68 251.06 12.68C251.20 12.68 251.22 12.61 251.22 12.40C251.22 12.24 251.20 12.18 251.06 12.18L250.57 12.18C250.47 12.18 249.45 9.34 248.89 7.78L247.21 3.07C247.20 3.00 247.13 2.94 247.04 2.94C246.92 2.94 246.82 3.16 246.74 3.35C246.58 3.71 246.34 3.84 246.23 4.13L244.75 7.57C244.57 8.01 242.86 12.18 242.73 12.18L242.31 12.18C242.09 12.18 242.06 12.19 242.06 12.39ZM244.96 8.33C244.96 8.30 244.99 8.23 245.03 8.13L246.40 4.77C246.44 4.66 246.47 4.61 246.50 4.61C246.51 4.61 246.53 4.63 246.57 4.77L247.73 8.18C247.76 8.25 247.77 8.29 247.77 8.32C247.77 8.36 247.74 8.37 247.65 8.37L245.14 8.37C244.96 8.37 244.96 8.34 244.96 8.33ZM258.97 12.39C258.97 12.63 259.00 12.68 259.20 12.68C259.52 12.68 260.48 12.64 260.90 12.64C261.32 12.64 265.68 12.68 266.00 12.68C266.27 12.68 266.34 12.66 266.35 12.49C266.41 12.08 266.64 10.72 266.64 10.60C266.64 10.47 266.49 10.44 266.32 10.43C266.22 10.42 266.14 10.46 266.13 10.56L265.96 11.76C265.92 12.05 265.90 12.03 265.68 12.04C265.52 12.05 263.02 12.12 261.59 12.12C261.55 12.12 261.51 11.38 261.51 10.54L261.51 6.66C261.51 5.40 261.52 3.70 261.62 3.70L262.60 3.70C262.84 3.70 262.86 3.63 262.86 3.44C262.86 3.23 262.85 3.19 262.61 3.19C262.29 3.19 261.35 3.23 260.93 3.23C260.51 3.23 259.57 3.19 259.35 3.19C259.13 3.19 259.07 3.22 259.07 3.44C259.07 3.65 259.11 3.70 259.31 3.70L260.13 3.70C260.18 3.70 260.20 4.23 260.20 4.90L260.20 8.13C260.20 10.07 260.18 12.18 260.09 12.18L259.25 12.18C259.03 12.18 258.97 12.21 258.97 12.39ZM274.26 12.39C274.26 12.63 274.29 12.68 274.48 12.68C274.81 12.68 275.77 12.64 276.19 12.64C276.61 12.64 280.97 12.68 281.29 12.68C281.55 12.68 281.62 12.66 281.64 12.49C281.69 12.08 281.93 10.72 281.93 10.60C281.93 10.47 281.78 10.44 281.61 10.43C281.51 10.42 281.43 10.46 281.41 10.56L281.25 11.76C281.20 12.05 281.19 12.03 280.97 12.04C280.81 12.05 278.31 12.12 276.88 12.12C276.84 12.12 276.79 11.38 276.79 10.54L276.79 6.66C276.79 5.40 276.81 3.70 276.91 3.70L277.89 3.70C278.12 3.70 278.15 3.63 278.15 3.44C278.15 3.23 278.14 3.19 277.90 3.19C277.58 3.19 276.64 3.23 276.22 3.23C275.80 3.23 274.86 3.19 274.64 3.19C274.41 3.19 274.36 3.22 274.36 3.44C274.36 3.65 274.40 3.70 274.60 3.70L275.42 3.70C275.46 3.70 275.49 4.23 275.49 4.90L275.49 8.13C275.49 10.07 275.46 12.18 275.38 12.18L274.54 12.18C274.32 12.18 274.26 12.21 274.26 12.39ZM289.55 12.39C289.55 12.63 289.58 12.68 289.77 12.68C290.09 12.68 291.06 12.64 291.48 12.64C291.90 12.64 296.41 12.68 296.73 12.68C296.86 12.68 297.01 12.66 297.01 12.49C297.01 12.07 297.05 11.23 297.05 10.53C297.05 10.39 296.90 10.39 296.77 10.39C296.66 10.39 296.53 10.39 296.53 10.51C296.52 11.06 296.52 11.41 296.49 11.76C296.46 12.01 296.46 12.04 296.37 12.04C296.21 12.04 293.58 12.08 292.08 12.08C292.01 12.08 291.97 10.11 291.93 8.26C291.93 8.06 291.97 8.09 292.11 8.09L294.39 8.09C295.09 8.09 295.12 8.20 295.12 8.30L295.12 9.00C295.12 9.14 295.30 9.14 295.41 9.14C295.51 9.14 295.64 9.13 295.64 9.02C295.64 8.83 295.61 8.33 295.61 7.83C295.61 7.32 295.64 6.83 295.64 6.71C295.64 6.59 295.50 6.58 295.40 6.58C295.29 6.58 295.12 6.59 295.12 6.72L295.12 7.45C295.12 7.62 294.67 7.63 294.39 7.63L292.05 7.63C291.94 7.63 291.93 7.63 291.93 7.45C291.91 6.75 291.90 6.06 291.90 5.46C291.90 5.12 291.90 3.71 291.98 3.71C293.22 3.71 295.72 3.75 295.72 3.81C295.72 3.99 295.68 4.83 295.68 4.89C295.68 5.04 295.75 5.10 295.93 5.10C296.13 5.10 296.20 5.08 296.20 4.94C296.20 3.85 296.25 3.36 296.25 3.09C296.25 2.91 296.17 2.90 295.97 2.90C295.78 2.90 295.78 2.95 295.75 3.11C295.74 3.25 295.81 3.25 294.90 3.25C294.28 3.25 292.14 3.29 291.37 3.29C290.88 3.29 289.94 3.25 289.84 3.25C289.72 3.25 289.66 3.30 289.66 3.49C289.66 3.72 289.73 3.74 289.90 3.74L290.56 3.74C290.61 3.74 290.68 4.79 290.68 5.71C290.68 5.80 290.74 8.27 290.74 9.83L290.74 11.17C290.74 11.84 290.71 12.18 290.68 12.18L289.83 12.18C289.60 12.18 289.55 12.21 289.55 12.39ZM305.02 12.39C305.02 12.63 305.03 12.68 305.23 12.68C305.41 12.68 305.79 12.64 306.40 12.64C307.03 12.64 307.59 12.68 307.92 12.68C308.08 12.68 308.08 12.61 308.08 12.40C308.08 12.24 308.08 12.18 307.92 12.18L306.71 12.18C306.67 12.18 306.66 11.54 306.66 10.79C306.66 9.46 306.67 7.48 306.67 5.99C306.67 5.25 306.67 4.84 306.68 4.28C306.68 4.02 306.75 4.14 306.88 4.28L313.77 12.66C313.85 12.75 313.94 12.89 314.05 12.89C314.16 12.89 314.23 12.77 314.23 12.54C314.23 12.39 314.40 6.65 314.41 4.48C314.41 4.06 314.44 3.70 314.47 3.70L315.10 3.70C315.32 3.70 315.38 3.68 315.38 3.49C315.38 3.25 315.38 3.19 315.18 3.19C314.99 3.19 314.55 3.23 313.99 3.23C313.38 3.23 312.58 3.19 312.48 3.19C312.31 3.19 312.31 3.26 312.31 3.47C312.31 3.64 312.31 3.70 312.48 3.70L313.78 3.70C313.80 3.70 313.80 4.33 313.80 4.44C313.80 5.85 313.82 8.33 313.82 9.70L313.82 10.29C313.82 10.57 313.81 10.65 313.59 10.37L307.90 3.39C307.79 3.25 307.76 3.19 307.59 3.19C307.51 3.19 307.13 3.23 306.82 3.23C306.53 3.23 305.45 3.19 305.26 3.19C305.09 3.19 305.06 3.26 305.06 3.47C305.06 3.64 305.09 3.70 305.26 3.70L306.17 3.70C306.17 4.17 306.12 8.53 306.05 10.79C306.03 11.69 306.04 12.18 305.93 12.18L305.28 12.18C305.06 12.18 305.02 12.19 305.02 12.39ZM323.48 7.91C323.48 11.40 325.85 12.89 328.44 12.89C330.33 12.89 332.33 11.89 332.33 11.58C332.33 11.12 332.35 10.68 332.35 10.33C332.35 9.81 332.36 9.56 332.49 9.56L332.92 9.56C333.06 9.56 333.07 9.39 333.07 9.30C333.07 9.18 333.06 9.06 332.92 9.06C332.70 9.06 332.33 9.10 331.66 9.10C331.21 9.10 330.47 9.07 329.78 9.06C329.64 9.06 329.64 9.24 329.64 9.35C329.64 9.45 329.67 9.56 329.80 9.56L331.02 9.56C331.06 9.56 331.11 9.87 331.11 10.33C331.11 10.82 331.10 11.41 331.07 11.65C331.06 11.76 330.41 12.39 328.83 12.39C326.59 12.39 325.00 10.29 325.00 7.94C325.00 5.42 326.55 3.54 328.55 3.54C330.44 3.54 331.62 4.87 331.62 5.03C331.62 5.15 331.56 6.12 331.56 6.17C331.56 6.31 331.60 6.36 331.87 6.36C332.07 6.36 332.14 6.33 332.14 6.15C332.14 5.43 332.18 3.75 332.18 3.56C332.18 3.36 332.08 3.33 331.87 3.33C331.65 3.33 331.62 3.39 331.62 3.56L331.62 3.91C331.62 3.99 331.58 4.02 331.45 3.92C331.17 3.72 330.18 3.08 328.61 3.08C325.77 3.08 323.48 4.79 323.48 7.91ZM341.11 12.39C341.11 12.63 341.14 12.68 341.33 12.68C341.66 12.68 342.62 12.64 343.04 12.64C343.46 12.64 347.97 12.68 348.29 12.68C348.42 12.68 348.57 12.66 348.57 12.49C348.57 12.07 348.61 11.23 348.61 10.53C348.61 10.39 348.46 10.39 348.33 10.39C348.22 10.39 348.10 10.39 348.10 10.51C348.08 11.06 348.08 11.41 348.05 11.76C348.03 12.01 348.03 12.04 347.93 12.04C347.77 12.04 345.14 12.08 343.64 12.08C343.57 12.08 343.53 10.11 343.49 8.26C343.49 8.06 343.53 8.09 343.67 8.09L345.95 8.09C346.65 8.09 346.68 8.20 346.68 8.30L346.68 9.00C346.68 9.14 346.86 9.14 346.98 9.14C347.07 9.14 347.20 9.13 347.20 9.02C347.20 8.83 347.17 8.33 347.17 7.83C347.17 7.32 347.20 6.83 347.20 6.71C347.20 6.59 347.06 6.58 346.96 6.58C346.85 6.58 346.68 6.59 346.68 6.72L346.68 7.45C346.68 7.62 346.23 7.63 345.95 7.63L343.62 7.63C343.50 7.63 343.49 7.63 343.49 7.45C343.48 6.75 343.46 6.06 343.46 5.46C343.46 5.12 343.46 3.71 343.55 3.71C344.78 3.71 347.28 3.75 347.28 3.81C347.28 3.99 347.24 4.83 347.24 4.89C347.24 5.04 347.31 5.10 347.49 5.10C347.69 5.10 347.76 5.08 347.76 4.94C347.76 3.85 347.82 3.36 347.82 3.09C347.82 2.91 347.73 2.90 347.54 2.90C347.34 2.90 347.34 2.95 347.31 3.11C347.30 3.25 347.37 3.25 346.46 3.25C345.84 3.25 343.70 3.29 342.93 3.29C342.44 3.29 341.50 3.25 341.40 3.25C341.28 3.25 341.22 3.30 341.22 3.49C341.22 3.72 341.29 3.74 341.46 3.74L342.12 3.74C342.17 3.74 342.24 4.79 342.24 5.71C342.24 5.80 342.30 8.27 342.30 9.83L342.30 11.17C342.30 11.84 342.27 12.18 342.24 12.18L341.39 12.18C341.17 12.18 341.11 12.21 341.11 12.39Z"></path></g></svg>