<svg data-v-29081953="" xmlns="http://www.w3.org/2000/svg" viewBox="0 0 300 300"><!----><defs data-v-29081953=""><!----></defs><rect data-v-29081953="" fill="transparent" x="0" y="0" width="300px" height="300px" class="logo-background-square"></rect><defs data-v-29081953=""><!----></defs><g data-v-29081953="" id="a776b4b1-cacb-48c0-8e32-5ab37a9ae43c" fill="#000000" transform="matrix(2.6420987969582366,0,0,2.6420987969582366,107.60373814418325,113.90927312018653)"><path d="M6.48 4.10L6.48 4.10L10.26 11.91L10.26 11.91Q10.50 12.39 10.50 12.63L10.50 12.63L10.50 12.63Q10.50 13.13 9.69 13.54L9.69 13.54L9.69 13.54Q9.21 13.78 8.94 13.78L8.94 13.78L8.94 13.78Q8.67 13.78 8.49 13.65L8.49 13.65L8.49 13.65Q8.32 13.52 8.24 13.38L8.24 13.38L8.24 13.38Q8.16 13.24 8.02 12.96L8.02 12.96L7.29 11.45L3.42 11.45L2.69 12.96L2.69 12.96Q2.55 13.24 2.47 13.37L2.47 13.37L2.47 13.37Q2.39 13.50 2.22 13.63L2.22 13.63L2.22 13.63Q2.04 13.76 1.77 13.76L1.77 13.76L1.77 13.76Q1.50 13.76 1.02 13.52L1.02 13.52L1.02 13.52Q0.21 13.13 0.21 12.63L0.21 12.63L0.21 12.63Q0.21 12.39 0.45 11.91L0.45 11.91L4.23 4.09L4.23 4.09Q4.38 3.77 4.70 3.57L4.70 3.57L4.70 3.57Q5.01 3.37 5.36 3.37L5.36 3.37L5.36 3.37Q6.12 3.37 6.48 4.10ZM6.29 9.38L5.35 7.46L4.42 9.38L6.29 9.38ZM15.37 6.26L15.37 6.26L15.37 6.26Q16.77 6.26 17.70 7.33L17.70 7.33L17.70 7.33Q18.63 8.40 18.63 9.94L18.63 9.94L18.63 12.40L18.63 12.40Q18.63 12.73 18.61 12.89L18.61 12.89L18.61 12.89Q18.59 13.05 18.49 13.24L18.49 13.24L18.49 13.24Q18.30 13.62 17.40 13.62L17.40 13.62L17.40 13.62Q16.41 13.62 16.25 13.10L16.25 13.10L16.25 13.10Q16.17 12.87 16.17 12.39L16.17 12.39L16.17 9.93L16.17 9.93Q16.17 9.35 15.84 9.03L15.84 9.03L15.84 9.03Q15.51 8.71 14.96 8.71L14.96 8.71L14.96 8.71Q14.41 8.71 14.06 9.04L14.06 9.04L14.06 9.04Q13.72 9.38 13.72 9.93L13.72 9.93L13.72 12.40L13.72 12.40Q13.72 12.73 13.70 12.89L13.70 12.89L13.70 12.89Q13.68 13.05 13.57 13.24L13.57 13.24L13.57 13.24Q13.38 13.62 12.49 13.62L12.49 13.62L12.49 13.62Q11.61 13.62 11.41 13.24L11.41 13.24L11.41 13.24Q11.31 13.03 11.29 12.87L11.29 12.87L11.29 12.87Q11.27 12.71 11.27 12.39L11.27 12.39L11.27 7.43L11.27 7.43Q11.27 7.13 11.29 6.97L11.29 6.97L11.29 6.97Q11.31 6.80 11.42 6.61L11.42 6.61L11.42 6.61Q11.62 6.26 12.50 6.26L12.50 6.26L12.50 6.26Q13.36 6.26 13.55 6.58L13.55 6.58L13.55 6.58Q13.69 6.82 13.69 7.15L13.69 7.15L13.69 7.15Q13.75 7.06 13.94 6.87L13.94 6.87L13.94 6.87Q14.14 6.69 14.32 6.58L14.32 6.58L14.32 6.58Q14.80 6.26 15.37 6.26ZM24.70 3.19L24.70 3.19L24.70 3.19Q24.81 2.98 25.07 2.90L25.07 2.90L25.07 2.90Q25.34 2.81 25.78 2.81L25.78 2.81L25.78 2.81Q26.22 2.81 26.49 2.90L26.49 2.90L26.49 2.90Q26.75 2.98 26.86 3.19L26.86 3.19L26.86 3.19Q26.96 3.40 26.99 3.56L26.99 3.56L26.99 3.56Q27.01 3.72 27.01 4.05L27.01 4.05L27.01 12.40L27.01 12.40Q27.01 12.73 26.99 12.89L26.99 12.89L26.99 12.89Q26.96 13.05 26.85 13.24L26.85 13.24L26.85 13.24Q26.64 13.62 25.67 13.62L25.67 13.62L25.67 13.62Q24.70 13.62 24.58 12.94L24.58 12.94L24.58 12.94Q24.00 13.61 22.95 13.61L22.95 13.61L22.95 13.61Q21.69 13.61 20.65 12.51L20.65 12.51L20.65 12.51Q19.61 11.41 19.61 9.95L19.61 9.95L19.61 9.95Q19.61 8.48 20.66 7.38L20.66 7.38L20.66 7.38Q21.70 6.27 22.95 6.27L22.95 6.27L22.95 6.27Q23.98 6.27 24.56 6.97L24.56 6.97L24.56 4.03L24.56 4.03Q24.56 3.71 24.58 3.55L24.58 3.55L24.58 3.55Q24.60 3.39 24.70 3.19ZM22.43 10.79L22.43 10.79L22.43 10.79Q22.79 11.17 23.31 11.17L23.31 11.17L23.31 11.17Q23.83 11.17 24.17 10.79L24.17 10.79L24.17 10.79Q24.51 10.42 24.51 9.96L24.51 9.96L24.51 9.96Q24.51 9.51 24.19 9.11L24.19 9.11L24.19 9.11Q23.86 8.72 23.30 8.72L23.30 8.72L23.30 8.72Q22.74 8.72 22.40 9.11L22.40 9.11L22.40 9.11Q22.06 9.49 22.06 9.95L22.06 9.95L22.06 9.95Q22.06 10.42 22.43 10.79ZM34.85 6.34L34.85 6.34L34.85 6.34Q35.67 6.71 35.67 7.22L35.67 7.22L35.67 7.22Q35.67 7.48 35.56 7.70L35.56 7.70L35.56 7.70Q35.45 7.92 35.45 7.94L35.45 7.94L31.78 16.14L31.78 16.14Q31.67 16.41 31.59 16.55L31.59 16.55L31.59 16.55Q31.51 16.69 31.35 16.81L31.35 16.81L31.35 16.81Q31.18 16.94 30.93 16.94L30.93 16.94L30.93 16.94Q30.67 16.94 30.18 16.73L30.18 16.73L30.18 16.73Q29.36 16.37 29.36 15.86L29.36 15.86L29.36 15.86Q29.36 15.53 30.70 12.66L30.70 12.66L27.92 7.97L27.92 7.97Q27.64 7.50 27.64 7.28L27.64 7.28L27.64 7.28Q27.64 6.83 28.39 6.38L28.39 6.38L28.39 6.38Q28.87 6.10 29.13 6.10L29.13 6.10L29.13 6.10Q29.40 6.10 29.57 6.22L29.57 6.22L29.57 6.22Q29.74 6.33 29.81 6.45L29.81 6.45L29.81 6.45Q29.89 6.57 30.58 7.75L30.58 7.75L30.58 7.75Q31.28 8.93 31.91 9.95L31.91 9.95L31.91 9.95Q31.98 9.73 32.66 8.23L32.66 8.23L32.66 8.23Q33.35 6.72 33.40 6.62L33.40 6.62L33.40 6.62Q33.45 6.52 33.56 6.38L33.56 6.38L33.56 6.38Q33.74 6.15 34.07 6.15L34.07 6.15L34.07 6.15Q34.40 6.15 34.85 6.34ZM38.89 3.75L38.93 3.72L38.93 3.72Q39.30 3.36 39.73 3.36L39.73 3.36L39.73 3.36Q40.15 3.36 40.39 3.43L40.39 3.43L40.39 3.43Q40.63 3.50 40.75 3.59L40.75 3.59L40.75 3.59Q40.88 3.68 40.95 3.89L40.95 3.89L40.95 3.89Q41.02 4.13 41.02 4.63L41.02 4.63L41.02 12.43L41.02 12.43Q41.02 12.75 41.00 12.92L41.00 12.92L41.00 12.92Q40.98 13.08 40.87 13.29L40.87 13.29L40.87 13.29Q40.67 13.66 39.77 13.66L39.77 13.66L39.77 13.66Q38.91 13.66 38.70 13.30L38.70 13.30L38.70 13.30Q38.58 13.09 38.56 12.92L38.56 12.92L38.56 12.92Q38.54 12.74 38.54 12.40L38.54 12.40L38.54 7.41L38.36 7.57L38.36 7.57Q37.79 8.01 37.38 8.01L37.38 8.01L37.38 8.01Q36.97 8.01 36.53 7.52L36.53 7.52L36.53 7.52Q36.09 7.03 36.09 6.65L36.09 6.65L36.09 6.65Q36.09 6.27 36.60 5.82L36.60 5.82L38.89 3.75ZM47.09 3.19L47.09 3.19L47.09 3.19Q47.19 2.98 47.46 2.90L47.46 2.90L47.46 2.90Q47.73 2.81 48.17 2.81L48.17 2.81L48.17 2.81Q48.61 2.81 48.87 2.90L48.87 2.90L48.87 2.90Q49.14 2.98 49.25 3.19L49.25 3.19L49.25 3.19Q49.35 3.40 49.37 3.56L49.37 3.56L49.37 3.56Q49.39 3.72 49.39 4.05L49.39 4.05L49.39 12.40L49.39 12.40Q49.39 12.73 49.37 12.89L49.37 12.89L49.37 12.89Q49.35 13.05 49.24 13.24L49.24 13.24L49.24 13.24Q49.03 13.62 48.06 13.62L48.06 13.62L48.06 13.62Q47.08 13.62 46.97 12.94L46.97 12.94L46.97 12.94Q46.38 13.61 45.33 13.61L45.33 13.61L45.33 13.61Q44.07 13.61 43.04 12.51L43.04 12.51L43.04 12.51Q42.00 11.41 42.00 9.95L42.00 9.95L42.00 9.95Q42.00 8.48 43.04 7.38L43.04 7.38L43.04 7.38Q44.09 6.27 45.33 6.27L45.33 6.27L45.33 6.27Q46.37 6.27 46.94 6.97L46.94 6.97L46.94 4.03L46.94 4.03Q46.94 3.71 46.96 3.55L46.96 3.55L46.96 3.55Q46.98 3.39 47.09 3.19ZM44.81 10.79L44.81 10.79L44.81 10.79Q45.18 11.17 45.70 11.17L45.70 11.17L45.70 11.17Q46.21 11.17 46.56 10.79L46.56 10.79L46.56 10.79Q46.90 10.42 46.90 9.96L46.90 9.96L46.90 9.96Q46.90 9.51 46.57 9.11L46.57 9.11L46.57 9.11Q46.24 8.72 45.68 8.72L45.68 8.72L45.68 8.72Q45.12 8.72 44.79 9.11L44.79 9.11L44.79 9.11Q44.45 9.49 44.45 9.95L44.45 9.95L44.45 9.95Q44.45 10.42 44.81 10.79ZM57.18 8.37L55.62 9.94L57.18 11.51L57.18 11.51Q57.68 12.01 57.68 12.37L57.68 12.37L57.68 12.37Q57.68 12.73 57.18 13.22L57.18 13.22L57.18 13.22Q56.67 13.72 56.32 13.72L56.32 13.72L56.32 13.72Q55.97 13.72 55.47 13.22L55.47 13.22L53.93 11.66L52.37 13.22L52.37 13.22Q51.87 13.72 51.53 13.72L51.53 13.72L51.53 13.72Q51.18 13.72 50.67 13.22L50.67 13.22L50.67 13.22Q50.16 12.73 50.16 12.37L50.16 12.37L50.16 12.37Q50.16 12.01 50.67 11.51L50.67 11.51L52.22 9.94L50.67 8.37L50.67 8.37Q50.16 7.87 50.16 7.51L50.16 7.51L50.16 7.51Q50.16 7.15 50.67 6.65L50.67 6.65L50.67 6.65Q51.18 6.15 51.53 6.15L51.53 6.15L51.53 6.15Q51.87 6.15 52.37 6.65L52.37 6.65L53.93 8.22L55.47 6.65L55.47 6.65Q55.97 6.15 56.32 6.15L56.32 6.15L56.32 6.15Q56.67 6.15 57.18 6.65L57.18 6.65L57.18 6.65Q57.68 7.15 57.68 7.51L57.68 7.51L57.68 7.51Q57.68 7.87 57.18 8.37L57.18 8.37Z"></path></g><defs data-v-29081953=""><linearGradient data-v-29081953="" gradientTransform="rotate(25)" id="8fd36f18-30fa-48b0-865b-b19be0342086" x1="0%" y1="0%" x2="100%" y2="0%"><stop data-v-29081953="" offset="0%" stop-color="#0D7CE9" stop-opacity="1"></stop><stop data-v-29081953="" offset="100%" stop-color="#15CFF1" stop-opacity="1"></stop></linearGradient></defs><g data-v-29081953="" id="5835e12b-0b8f-4eab-9858-6ab3150e00b8" stroke="none" fill="url(#8fd36f18-30fa-48b0-865b-b19be0342086)" transform="matrix(0.14098288963880654,0,0,0.14098288963880654,31.484633250693268,113.90838025246553)"><path d="M241.4 58.8c3.3 0 6-2.7 6-6V17c0-3.3-2.7-6-6-6s-6 2.7-6 6v35.8c0 3.3 2.7 6 6 6zM366 187.7c0 3.3 2.7 6 6 6h35.8c3.3 0 6-2.7 6-6s-2.7-6-6-6H372c-3.3 0-6 2.7-6 6zM102.2 181.7H66.4c-3.3 0-6 2.7-6 6s2.7 6 6 6h35.8c3.3 0 6-2.7 6-6s-2.7-6-6-6zM335.1 95.7c1.6 0 3.1-.6 4.2-1.8l28-28c2.3-2.4 2.3-6.2-.1-8.5-2.3-2.3-6-2.3-8.4 0l-28 28c-2.3 2.3-2.3 6.1 0 8.5 1.2 1.2 2.7 1.8 4.3 1.8zM106.9 66l28 28c2.3 2.4 6.1 2.4 8.5.1 2.4-2.3 2.4-6.1.1-8.5l-.1-.1-28-28c-2.3-2.4-6.1-2.4-8.5-.1-2.4 2.4-2.4 6.2 0 8.6z"></path><circle cx="275.3" cy="402.7" r="6.1"></circle><circle cx="356.6" cy="324.5" r="6.1"></circle><path d="M190.7 403.8v1.7c0 6.6 5.3 11.9 11.9 11.9h34.8c-.7-4.5-1.2-9.1-1.4-13.6h-45.3zM397.9 370.5c0-3.3-2.7-6.1-6.1-6.1-3.3 0-6.1 2.7-6.1 6.1 0 3.3 2.7 6.1 6.1 6.1 3.4 0 6.1-2.8 6.1-6.1zM190.7 366.2h14.6c3.3 0 6 2.7 6 6s-2.7 6-6 6h-14.6v13.6h45.5c.3-4.6.9-9.1 1.7-13.6h-14.1c-3.3 0-6-2.7-6-6s2.7-6 6-6h17c1.3-4.4 2.9-8.6 4.7-12.8h-54.9v12.8zM299.2 297.2c3.8-5.6 8.3-10.8 13.2-15.4 44.6-41.6 47.1-111.5 5.5-156.1-41.6-44.6-111.5-47.1-156.1-5.5-44.6 41.6-47.1 111.5-5.5 156.1 2 2.1 4 4.1 6.1 6.1 16.6 15.3 26.6 36.5 28.1 59h61.2c11.3-19 27.7-34.3 47.5-44.2z"></path><path d="M431.5 338.4c-19.2-25.8-49.5-41.1-81.7-41.1-56.2 0-101.8 45.5-101.8 101.8 0 32.4 15.4 62.9 41.6 82.1v-32.3l-16.5-6.6c-2.3-.9-3.8-3.1-3.8-5.6v-17.1c-9.4-3.3-14.3-13.6-11-23 3.3-9.4 13.6-14.3 23-11 9.4 3.3 14.3 13.6 11 23-1.8 5.2-5.9 9.2-11 11v13l16.5 6.6c2.3.9 3.8 3.1 3.8 5.6v44c5.8 3.1 11.8 5.7 18.1 7.6V411l-16.5-16.5c-1.1-1.1-1.8-2.6-1.8-4.2v-11.9c-9.4-3.3-14.3-13.6-11-23 3.3-9.4 13.6-14.3 23-11 9.4 3.3 14.3 13.6 11 23-1.8 5.2-5.9 9.2-11 11v9.4l16.5 16.5c1.1 1.1 1.8 2.7 1.8 4.2v90.9c1.9.3 3.8.6 5.8.9v-66.7c0-1.6.6-3.1 1.8-4.2l11.4-11.4v-76.5c-9.4-3.3-14.3-13.6-11-23 3.3-9.4 13.6-14.3 23-11 9.4 3.3 14.3 13.6 11 23-1.8 5.2-5.9 9.2-11 11v79c0 1.6-.6 3.1-1.8 4.2l-11.4 11.4V501h.3c4.8 0 9.6-.3 14.4-1v-51.1c0-1.3.4-2.5 1.2-3.5l20.5-28.1v-29.7c-9.4-3.3-14.3-13.6-11-23 3.3-9.4 13.6-14.3 23-11 9.4 3.3 14.3 13.6 11 23-1.8 5.2-5.9 9.2-11 11v31.6c0 1.3-.4 2.5-1.2 3.5l-20.5 28.1v46.7c7.8-2.1 15.3-5.1 22.3-9v-22.8c0-1.6.7-3.2 1.9-4.4l13.8-13.1v-9c-9.4-3.3-14.3-13.6-11-23 3.3-9.4 13.6-14.3 23-11 9.4 3.3 14.3 13.6 11 23-1.8 5.2-5.9 9.2-11 11v11.5c0 1.6-.7 3.2-1.9 4.4l-13.8 13.1v12.5c45.2-33.4 54.6-97.2 21-142.3z"></path><circle cx="420.2" cy="422.3" r="6.1"></circle><path d="M313.4 361.3c0-3.3-2.7-6.1-6.1-6.1-3.3 0-6.1 2.7-6.1 6.1 0 3.3 2.7 6.1 6.1 6.1 3.4 0 6.1-2.7 6.1-6.1z"></path></g><defs data-v-29081953=""><!----></defs><g data-v-29081953="" id="4d3cbae1-a26d-4b9e-9560-4798445d63d5" fill="#000000" transform="matrix(0.4569270325959274,0,0,0.4569270325959274,107.68337481712248,166.505164538649)"><path d="M6.62 14.38L6.62 14.38L6.62 14.38Q6.97 14.98 6.97 15.54L6.97 15.54L6.97 15.54Q6.97 15.67 6.95 15.77L6.95 15.77L6.95 15.77Q6.93 15.88 6.90 15.99L6.90 15.99L6.90 15.99Q6.66 15.96 6.41 15.95L6.41 15.95L6.41 15.95Q6.15 15.93 5.87 15.93L5.87 15.93L5.87 15.93Q5.53 15.93 5.19 15.95L5.19 15.95L5.19 15.95Q4.84 15.97 4.42 16.02L4.42 16.02L4.42 16.02Q4.00 16.06 3.49 16.13L3.49 16.13L3.49 16.13Q2.97 16.20 2.28 16.31L2.28 16.31L2.28 16.31Q1.96 16.20 1.64 15.87L1.64 15.87L1.64 15.87Q1.32 15.54 1.04 15.08L1.04 15.08L1.04 15.08Q1.18 14.77 1.39 14.31L1.39 14.31L1.39 14.31Q1.60 13.86 1.88 13.21L1.88 13.21L1.88 13.21Q2.16 12.56 2.50 11.68L2.50 11.68L2.50 11.68Q2.84 10.81 3.23 9.66L3.23 9.66L3.23 9.66Q3.49 8.90 3.67 8.33L3.67 8.33L3.67 8.33Q3.85 7.76 4.00 7.22L4.00 7.22L4.00 7.22Q4.14 6.68 4.28 6.09L4.28 6.09L4.28 6.09Q4.42 5.50 4.59 4.73L4.59 4.73L4.59 4.73Q5.15 4.84 5.57 5.14L5.57 5.14L5.57 5.14Q5.98 5.45 6.36 6.01L6.36 6.01L6.36 6.01Q6.24 6.19 6.06 6.59L6.06 6.59L6.06 6.59Q5.88 7 5.63 7.58L5.63 7.58L5.63 7.58Q5.39 8.16 5.10 8.90L5.10 8.90L5.10 8.90Q4.80 9.63 4.48 10.47L4.48 10.47L4.48 10.47Q4.17 11.30 3.88 12.03L3.88 12.03L3.88 12.03Q3.58 12.75 3.35 13.34L3.35 13.34L3.35 13.34Q3.12 13.93 2.98 14.35L2.98 14.35L2.98 14.35Q2.84 14.77 2.84 14.98L2.84 14.98L2.84 14.98Q3.07 14.97 3.25 14.95L3.25 14.95L3.25 14.95Q3.43 14.94 3.63 14.90L3.63 14.90L3.63 14.90Q3.82 14.87 4.05 14.82L4.05 14.82L4.05 14.82Q4.28 14.77 4.61 14.69L4.61 14.69L4.61 14.69Q4.89 14.62 5.12 14.57L5.12 14.57L5.12 14.57Q5.36 14.52 5.59 14.48L5.59 14.48L5.59 14.48Q5.82 14.45 6.07 14.43L6.07 14.43L6.07 14.43Q6.31 14.41 6.62 14.38ZM21.04 9.21L21.04 9.21L21.04 9.21Q21.50 9.21 21.76 9.46L21.76 9.46L21.76 9.46Q22.02 9.72 22.02 10.16L22.02 10.16L22.02 10.16Q22.02 10.28 22.00 10.39L22.00 10.39L22.00 10.39Q21.98 10.51 21.95 10.60L21.95 10.60L21.95 10.60Q21.77 10.57 21.55 10.55L21.55 10.55L21.55 10.55Q21.32 10.53 21.01 10.53L21.01 10.53L21.01 10.53Q20.41 10.53 19.80 10.63L19.80 10.63L19.80 10.63Q19.18 10.74 18.62 10.81L18.62 10.81L18.62 10.81Q18.30 11.55 18.03 12.24L18.03 12.24L18.03 12.24Q17.77 12.94 17.58 13.51L17.58 13.51L17.58 13.51Q17.39 14.08 17.28 14.50L17.28 14.50L17.28 14.50Q17.18 14.92 17.16 15.13L17.16 15.13L17.16 15.13Q18.30 14.90 19.45 14.73L19.45 14.73L19.45 14.73Q20.61 14.56 21.88 14.48L21.88 14.48L21.88 14.48Q22.04 14.71 22.14 14.99L22.14 14.99L22.14 14.99Q22.25 15.27 22.25 15.60L22.25 15.60L22.25 15.60Q22.25 15.68 22.25 15.78L22.25 15.78L22.25 15.78Q22.25 15.88 22.22 15.97L22.22 15.97L22.22 15.97Q21.83 15.96 21.39 15.95L21.39 15.95L21.39 15.95Q20.96 15.95 20.26 15.95L20.26 15.95L20.26 15.95Q19.80 15.95 19.38 15.97L19.38 15.97L19.38 15.97Q18.97 15.99 18.55 16.03L18.55 16.03L18.55 16.03Q18.13 16.07 17.66 16.14L17.66 16.14L17.66 16.14Q17.19 16.21 16.60 16.31L16.60 16.31L16.60 16.31Q15.96 16.06 15.36 15.08L15.36 15.08L15.36 15.08Q15.60 14.57 16.02 13.54L16.02 13.54L16.02 13.54Q16.45 12.52 17.11 10.79L17.11 10.79L17.11 10.79Q16.48 10.60 16.28 10.09L16.28 10.09L16.28 10.09Q16.35 10.02 16.69 9.92L16.69 9.92L16.69 9.92Q17.02 9.81 17.51 9.70L17.51 9.70L17.51 9.70Q17.72 9.16 17.87 8.75L17.87 8.75L17.87 8.75Q18.02 8.34 18.13 7.99L18.13 7.99L18.13 7.99Q18.24 7.63 18.33 7.29L18.33 7.29L18.33 7.29Q18.42 6.94 18.51 6.54L18.51 6.54L18.51 6.54Q18.02 6.51 17.74 6.27L17.74 6.27L17.74 6.27Q17.46 6.02 17.46 5.63L17.46 5.63L17.46 5.63Q17.46 5.52 17.49 5.36L17.49 5.36L17.49 5.36Q17.53 5.21 17.57 5.10L17.57 5.10L17.57 5.10Q17.85 5.14 18.11 5.15L18.11 5.15L18.11 5.15Q18.37 5.17 18.79 5.17L18.79 5.17L18.79 5.17Q19.67 5.17 20.44 5.12L20.44 5.12L20.44 5.12Q21.21 5.07 21.83 5.01L21.83 5.01L21.83 5.01Q22.46 4.96 22.90 4.91L22.90 4.91L22.90 4.91Q23.35 4.86 23.59 4.86L23.59 4.86L23.59 4.86Q23.91 4.86 24.16 5.19L24.16 5.19L24.16 5.19Q24.42 5.53 24.54 6.15L24.54 6.15L24.54 6.15Q24.11 6.10 23.84 6.09L23.84 6.09L23.84 6.09Q23.56 6.08 23.35 6.08L23.35 6.08L23.35 6.08Q22.58 6.08 21.95 6.15L21.95 6.15L21.95 6.15Q21.31 6.23 20.72 6.31L20.72 6.31L20.72 6.31Q20.64 6.44 20.53 6.64L20.53 6.64L20.53 6.64Q20.43 6.83 20.26 7.18L20.26 7.18L20.26 7.18Q20.09 7.53 19.84 8.06L19.84 8.06L19.84 8.06Q19.60 8.60 19.25 9.39L19.25 9.39L19.25 9.39Q19.78 9.31 20.25 9.26L20.25 9.26L20.25 9.26Q20.72 9.21 21.04 9.21ZM31.42 16.24L31.42 16.24L31.42 16.24Q30.74 16.04 30.48 15.85L30.48 15.85L30.48 15.85Q30.23 15.65 30.23 15.36L30.23 15.36L30.23 15.36Q30.23 15.13 30.35 14.73L30.35 14.73L30.35 14.73Q30.48 14.32 30.72 13.77L30.72 13.77L30.72 13.77Q30.97 13.22 31.31 12.54L31.31 12.54L31.31 12.54Q31.65 11.87 32.09 11.10L32.09 11.10L32.09 11.10Q31.72 11.09 31.44 11.08L31.44 11.08L31.44 11.08Q31.15 11.07 30.97 11.07L30.97 11.07L30.97 11.07Q31.05 10.86 31.44 10.71L31.44 10.71L31.44 10.71Q31.84 10.56 32.48 10.44L32.48 10.44L32.48 10.44Q33.03 9.53 33.65 8.71L33.65 8.71L33.65 8.71Q34.27 7.88 34.90 7.19L34.90 7.19L34.90 7.19Q35.53 6.50 36.16 5.97L36.16 5.97L36.16 5.97Q36.79 5.45 37.37 5.14L37.37 5.14L37.37 5.14Q37.38 5.04 37.39 4.97L37.39 4.97L37.39 4.97Q37.39 4.90 37.39 4.87L37.39 4.87L37.39 4.87Q37.59 4.87 37.92 4.97L37.92 4.97L37.92 4.97Q38.25 5.07 38.56 5.21L38.56 5.21L38.56 5.21Q38.88 5.35 39.12 5.49L39.12 5.49L39.12 5.49Q39.37 5.64 39.40 5.74L39.40 5.74L39.40 5.74Q38.93 6.55 38.49 8.17L38.49 8.17L38.49 8.17Q38.04 9.79 37.74 12.04L37.74 12.04L37.74 12.04Q37.67 12.60 37.63 13.31L37.63 13.31L37.63 13.31Q37.58 14.03 37.58 14.91L37.58 14.91L37.58 14.91Q37.58 15.22 37.58 15.54L37.58 15.54L37.58 15.54Q37.58 15.86 37.60 16.21L37.60 16.21L37.60 16.21Q37.58 16.23 37.55 16.23L37.55 16.23L37.55 16.23Q37.52 16.23 37.44 16.23L37.44 16.23L37.44 16.23Q37.24 16.23 36.98 16.16L36.98 16.16L36.98 16.16Q36.72 16.10 36.48 16.01L36.48 16.01L36.48 16.01Q36.23 15.92 36.06 15.81L36.06 15.81L36.06 15.81Q35.88 15.69 35.84 15.61L35.84 15.61L35.84 15.61Q35.83 15.43 35.83 15.25L35.83 15.25L35.83 15.25Q35.83 15.08 35.83 14.88L35.83 14.88L35.83 14.88Q35.83 14.01 35.89 13.12L35.89 13.12L35.89 13.12Q35.95 12.22 36.11 11.27L36.11 11.27L36.11 11.27Q35.91 11.26 35.59 11.23L35.59 11.23L35.59 11.23Q35.27 11.21 34.87 11.20L34.87 11.20L34.87 11.20Q34.47 11.19 34.01 11.16L34.01 11.16L34.01 11.16Q33.56 11.14 33.12 11.13L33.12 11.13L33.12 11.13Q32.79 11.76 32.49 12.38L32.49 12.38L32.49 12.38Q32.20 13.01 31.99 13.64L31.99 13.64L31.99 13.64Q31.75 14.31 31.61 14.98L31.61 14.98L31.61 14.98Q31.46 15.65 31.42 16.24ZM36.82 7.83L36.82 7.83L36.82 7.83Q36.88 7.63 36.95 7.29L36.95 7.29L36.95 7.29Q37.03 6.94 37.10 6.57L37.10 6.57L37.10 6.57Q36.75 6.69 36.32 7.03L36.32 7.03L36.32 7.03Q35.90 7.36 35.44 7.86L35.44 7.86L35.44 7.86Q34.99 8.36 34.52 8.98L34.52 8.98L34.52 8.98Q34.05 9.60 33.61 10.30L33.61 10.30L33.61 10.30Q34.79 10.21 36.29 10.18L36.29 10.18L36.29 10.18Q36.40 9.59 36.53 9.01L36.53 9.01L36.53 9.01Q36.67 8.43 36.82 7.83ZM56.29 7.46L56.29 7.46L56.29 7.46Q56.29 8.13 55.99 8.73L55.99 8.73L55.99 8.73Q55.69 9.32 55.16 9.79L55.16 9.79L55.16 9.79Q54.63 10.26 53.91 10.58L53.91 10.58L53.91 10.58Q53.20 10.91 52.36 11.02L52.36 11.02L52.36 11.02Q52.57 11.65 52.87 12.31L52.87 12.31L52.87 12.31Q53.17 12.98 53.52 13.59L53.52 13.59L53.52 13.59Q53.87 14.21 54.25 14.73L54.25 14.73L54.25 14.73Q54.63 15.25 54.99 15.58L54.99 15.58L54.99 15.58Q54.92 15.72 54.79 15.86L54.79 15.86L54.79 15.86Q54.66 16.00 54.48 16.12L54.48 16.12L54.48 16.12Q54.31 16.24 54.12 16.32L54.12 16.32L54.12 16.32Q53.93 16.39 53.76 16.39L53.76 16.39L53.76 16.39Q53.45 16.39 53.17 16.10L53.17 16.10L53.17 16.10Q52.89 15.81 52.60 15.17L52.60 15.17L52.60 15.17Q52.32 14.53 52.00 13.52L52.00 13.52L52.00 13.52Q51.69 12.50 51.31 11.07L51.31 11.07L51.31 11.07Q51.16 11.07 51.00 11.07L51.00 11.07L51.00 11.07Q50.85 11.07 50.76 11.05L50.76 11.05L50.76 11.05Q50.67 10.99 50.55 10.85L50.55 10.85L50.55 10.85Q50.18 11.66 49.88 12.38L49.88 12.38L49.88 12.38Q49.59 13.09 49.36 13.76L49.36 13.76L49.36 13.76Q49.13 14.42 48.95 15.04L48.95 15.04L48.95 15.04Q48.78 15.67 48.65 16.31L48.65 16.31L48.65 16.31Q48.17 16.20 47.82 15.90L47.82 15.90L47.82 15.90Q47.47 15.61 47.17 15.08L47.17 15.08L47.17 15.08Q47.22 14.95 47.28 14.83L47.28 14.83L47.28 14.83Q47.35 14.71 47.45 14.50L47.45 14.50L47.45 14.50Q47.54 14.28 47.69 13.94L47.69 13.94L47.69 13.94Q47.84 13.61 48.08 13.05L48.08 13.05L48.08 13.05Q48.33 12.49 48.67 11.68L48.67 11.68L48.67 11.68Q49.01 10.86 49.50 9.70L49.50 9.70L49.50 9.70Q49.73 9.18 49.89 8.79L49.89 8.79L49.89 8.79Q50.05 8.40 50.18 8.04L50.18 8.04L50.18 8.04Q50.30 7.69 50.41 7.33L50.41 7.33L50.41 7.33Q50.51 6.97 50.62 6.51L50.62 6.51L50.62 6.51Q49.98 6.73 49.43 7.01L49.43 7.01L49.43 7.01Q48.87 7.28 48.51 7.59L48.51 7.59L48.51 7.59Q48.38 7.50 48.25 7.34L48.25 7.34L48.25 7.34Q48.12 7.17 48.01 6.96L48.01 6.96L48.01 6.96Q47.89 6.76 47.81 6.55L47.81 6.55L47.81 6.55Q47.73 6.34 47.71 6.17L47.71 6.17L47.71 6.17Q48.13 5.89 48.74 5.66L48.74 5.66L48.74 5.66Q49.35 5.42 50.04 5.24L50.04 5.24L50.04 5.24Q50.72 5.07 51.44 4.97L51.44 4.97L51.44 4.97Q52.15 4.87 52.77 4.87L52.77 4.87L52.77 4.87Q54.45 4.87 55.37 5.56L55.37 5.56L55.37 5.56Q56.29 6.26 56.29 7.46ZM52.71 6.02L52.88 6.29L52.88 6.29Q52.78 6.41 52.57 6.79L52.57 6.79L52.57 6.79Q52.36 7.17 52.09 7.69L52.09 7.69L52.09 7.69Q51.81 8.22 51.51 8.83L51.51 8.83L51.51 8.83Q51.21 9.45 50.93 10.05L50.93 10.05L50.93 10.05Q51.98 10.05 52.86 9.86L52.86 9.86L52.86 9.86Q53.75 9.66 54.39 9.30L54.39 9.30L54.39 9.30Q55.03 8.95 55.39 8.46L55.39 8.46L55.39 8.46Q55.75 7.98 55.75 7.39L55.75 7.39L55.75 7.39Q55.75 6.69 55.24 6.32L55.24 6.32L55.24 6.32Q54.74 5.95 53.69 5.95L53.69 5.95L53.69 5.95Q53.45 5.95 53.21 5.97L53.21 5.97L53.21 5.97Q52.98 5.99 52.71 6.02L52.71 6.02ZM64.69 16.24L64.69 16.24L64.69 16.24Q63.90 16.00 63.62 15.79L63.62 15.79L63.62 15.79Q63.34 15.57 63.34 15.19L63.34 15.19L63.34 15.19Q63.34 14.77 63.53 14.01L63.53 14.01L63.53 14.01Q63.73 13.24 64.04 12.31L64.04 12.31L64.04 12.31Q64.36 11.37 64.76 10.35L64.76 10.35L64.76 10.35Q65.17 9.32 65.59 8.39L65.59 8.39L65.59 8.39Q66.01 7.45 66.41 6.67L66.41 6.67L66.41 6.67Q66.81 5.89 67.12 5.46L67.12 5.46L67.02 4.87L67.02 4.87Q67.21 4.87 67.56 4.97L67.56 4.97L67.56 4.97Q67.91 5.07 68.27 5.21L68.27 5.21L68.27 5.21Q68.63 5.35 68.90 5.49L68.90 5.49L68.90 5.49Q69.17 5.64 69.20 5.74L69.20 5.74L69.20 5.74Q69.13 6.08 69.09 6.76L69.09 6.76L69.09 6.76Q69.05 7.43 69.05 8.20L69.05 8.20L69.05 8.20Q69.05 9.73 69.17 11.19L69.17 11.19L69.17 11.19Q69.29 12.66 69.72 14.17L69.72 14.17L69.72 14.17Q69.94 13.05 70.20 11.94L70.20 11.94L70.20 11.94Q70.46 10.82 70.74 9.81L70.74 9.81L70.74 9.81Q71.02 8.79 71.30 7.92L71.30 7.92L71.30 7.92Q71.58 7.06 71.84 6.40L71.84 6.40L71.84 6.40Q72.10 5.75 72.32 5.38L72.32 5.38L72.32 5.38Q72.55 5.01 72.73 4.98L72.73 4.98L72.73 4.98Q72.88 5.01 73.07 5.10L73.07 5.10L73.07 5.10Q73.25 5.19 73.42 5.32L73.42 5.32L73.42 5.32Q73.58 5.45 73.72 5.60L73.72 5.60L73.72 5.60Q73.86 5.75 73.95 5.91L73.95 5.91L73.95 5.91Q73.50 6.09 73.06 6.76L73.06 6.76L73.06 6.76Q72.62 7.43 72.22 8.39L72.22 8.39L72.22 8.39Q71.82 9.35 71.48 10.47L71.48 10.47L71.48 10.47Q71.13 11.59 70.88 12.68L70.88 12.68L70.88 12.68Q70.62 13.76 70.47 14.69L70.47 14.69L70.47 14.69Q70.32 15.61 70.31 16.17L70.31 16.17L70.31 16.17Q70.31 16.20 70.32 16.21L70.32 16.21L70.32 16.21Q70.28 16.23 70.23 16.23L70.23 16.23L70.23 16.23Q70.18 16.23 70.14 16.23L70.14 16.23L70.14 16.23Q69.50 16.23 69.00 16.07L69.00 16.07L69.00 16.07Q68.50 15.90 68.35 15.61L68.35 15.61L68.35 15.61Q68.05 14.43 67.86 13.34L67.86 13.34L67.86 13.34Q67.66 12.25 67.53 11.16L67.53 11.16L67.53 11.16Q67.40 10.07 67.32 8.95L67.32 8.95L67.32 8.95Q67.24 7.84 67.20 6.62L67.20 6.62L67.20 6.62Q66.93 7.04 66.64 7.72L66.64 7.72L66.64 7.72Q66.35 8.40 66.07 9.21L66.07 9.21L66.07 9.21Q65.79 10.02 65.53 10.92L65.53 10.92L65.53 10.92Q65.27 11.82 65.07 12.67L65.07 12.67L65.07 12.67Q64.88 13.52 64.76 14.29L64.76 14.29L64.76 14.29Q64.65 15.05 64.65 15.61L64.65 15.61L64.65 15.61Q64.65 15.90 64.66 16.03L64.66 16.03L64.66 16.03Q64.67 16.16 64.69 16.24ZM80.43 14.38L80.43 14.38L80.43 14.38Q80.43 13.87 80.59 13.07L80.59 13.07L80.59 13.07Q80.75 12.26 81.01 11.33L81.01 11.33L81.01 11.33Q81.27 10.40 81.61 9.43L81.61 9.43L81.61 9.43Q81.94 8.46 82.29 7.60L82.29 7.60L82.29 7.60Q82.64 6.75 82.98 6.10L82.98 6.10L82.98 6.10Q83.31 5.46 83.58 5.18L83.58 5.18L83.58 5.18Q83.72 5.19 83.95 5.29L83.95 5.29L83.95 5.29Q84.18 5.38 84.42 5.50L84.42 5.50L84.42 5.50Q84.66 5.63 84.85 5.78L84.85 5.78L84.85 5.78Q85.05 5.92 85.11 6.05L85.11 6.05L85.11 6.05Q84.70 6.41 84.30 7.15L84.30 7.15L84.30 7.15Q83.90 7.88 83.53 8.82L83.53 8.82L83.53 8.82Q83.16 9.76 82.84 10.80L82.84 10.80L82.84 10.80Q82.52 11.84 82.28 12.82L82.28 12.82L82.28 12.82Q82.04 13.80 81.91 14.64L81.91 14.64L81.91 14.64Q81.77 15.48 81.77 16.00L81.77 16.00L81.77 16.00Q81.77 16.24 81.82 16.30L81.82 16.30L81.82 16.30Q81.51 16.28 81.37 16.19L81.37 16.19L81.37 16.19Q81.23 16.10 81.15 16.00L81.15 16.00L81.15 16.00Q81.07 15.89 81.01 15.79L81.01 15.79L81.01 15.79Q80.95 15.68 80.82 15.62L80.82 15.62L80.82 15.62Q80.72 15.58 80.65 15.43L80.65 15.43L80.65 15.43Q80.58 15.27 80.53 15.09L80.53 15.09L80.53 15.09Q80.49 14.90 80.46 14.70L80.46 14.70L80.46 14.70Q80.43 14.50 80.43 14.38ZM92.67 16.24L92.67 16.24L92.67 16.24Q91.87 16.00 91.59 15.79L91.59 15.79L91.59 15.79Q91.31 15.57 91.31 15.19L91.31 15.19L91.31 15.19Q91.31 14.77 91.50 14.01L91.50 14.01L91.50 14.01Q91.70 13.24 92.02 12.31L92.02 12.31L92.02 12.31Q92.33 11.37 92.74 10.35L92.74 10.35L92.74 10.35Q93.14 9.32 93.56 8.39L93.56 8.39L93.56 8.39Q93.98 7.45 94.38 6.67L94.38 6.67L94.38 6.67Q94.78 5.89 95.09 5.46L95.09 5.46L94.99 4.87L94.99 4.87Q95.19 4.87 95.54 4.97L95.54 4.97L95.54 4.97Q95.89 5.07 96.24 5.21L96.24 5.21L96.24 5.21Q96.60 5.35 96.87 5.49L96.87 5.49L96.87 5.49Q97.15 5.64 97.17 5.74L97.17 5.74L97.17 5.74Q97.10 6.08 97.06 6.76L97.06 6.76L97.06 6.76Q97.02 7.43 97.02 8.20L97.02 8.20L97.02 8.20Q97.02 9.73 97.14 11.19L97.14 11.19L97.14 11.19Q97.26 12.66 97.69 14.17L97.69 14.17L97.69 14.17Q97.92 13.05 98.17 11.94L98.17 11.94L98.17 11.94Q98.43 10.82 98.71 9.81L98.71 9.81L98.71 9.81Q98.99 8.79 99.27 7.92L99.27 7.92L99.27 7.92Q99.55 7.06 99.81 6.40L99.81 6.40L99.81 6.40Q100.07 5.75 100.30 5.38L100.30 5.38L100.30 5.38Q100.52 5.01 100.70 4.98L100.70 4.98L100.70 4.98Q100.86 5.01 101.04 5.10L101.04 5.10L101.04 5.10Q101.22 5.19 101.39 5.32L101.39 5.32L101.39 5.32Q101.56 5.45 101.70 5.60L101.70 5.60L101.70 5.60Q101.84 5.75 101.92 5.91L101.92 5.91L101.92 5.91Q101.47 6.09 101.03 6.76L101.03 6.76L101.03 6.76Q100.59 7.43 100.19 8.39L100.19 8.39L100.19 8.39Q99.79 9.35 99.45 10.47L99.45 10.47L99.45 10.47Q99.11 11.59 98.85 12.68L98.85 12.68L98.85 12.68Q98.59 13.76 98.44 14.69L98.44 14.69L98.44 14.69Q98.29 15.61 98.28 16.17L98.28 16.17L98.28 16.17Q98.28 16.20 98.29 16.21L98.29 16.21L98.29 16.21Q98.25 16.23 98.20 16.23L98.20 16.23L98.20 16.23Q98.15 16.23 98.11 16.23L98.11 16.23L98.11 16.23Q97.47 16.23 96.97 16.07L96.97 16.07L96.97 16.07Q96.47 15.90 96.32 15.61L96.32 15.61L96.32 15.61Q96.03 14.43 95.83 13.34L95.83 13.34L95.83 13.34Q95.63 12.25 95.50 11.16L95.50 11.16L95.50 11.16Q95.37 10.07 95.29 8.95L95.29 8.95L95.29 8.95Q95.21 7.84 95.17 6.62L95.17 6.62L95.17 6.62Q94.91 7.04 94.61 7.72L94.61 7.72L94.61 7.72Q94.32 8.40 94.04 9.21L94.04 9.21L94.04 9.21Q93.76 10.02 93.50 10.92L93.50 10.92L93.50 10.92Q93.24 11.82 93.04 12.67L93.04 12.67L93.04 12.67Q92.85 13.52 92.74 14.29L92.74 14.29L92.74 14.29Q92.62 15.05 92.62 15.61L92.62 15.61L92.62 15.61Q92.62 15.90 92.63 16.03L92.63 16.03L92.63 16.03Q92.64 16.16 92.67 16.24ZM115.74 10.72L115.74 10.72L115.74 10.72Q116.10 10.72 116.31 10.98L116.31 10.98L116.31 10.98Q116.52 11.23 116.52 11.68L116.52 11.68L116.52 11.68Q116.52 11.79 116.51 11.91L116.51 11.91L116.51 11.91Q116.49 12.03 116.47 12.11L116.47 12.11L116.47 12.11Q116.17 12.04 115.82 12.03L115.82 12.03L115.82 12.03Q115.74 12.64 115.37 13.32L115.37 13.32L115.37 13.32Q115.01 14 114.49 14.60L114.49 14.60L114.49 14.60Q113.97 15.19 113.36 15.64L113.36 15.64L113.36 15.64Q112.74 16.09 112.14 16.24L112.14 16.24L112.14 16.24Q110.26 16.20 109.40 15.27L109.40 15.27L109.40 15.27Q108.54 14.34 108.54 12.36L108.54 12.36L108.54 12.36Q108.54 10.92 109.07 9.57L109.07 9.57L109.07 9.57Q109.61 8.22 110.49 7.17L110.49 7.17L110.49 7.17Q111.37 6.12 112.51 5.48L112.51 5.48L112.51 5.48Q113.65 4.84 114.88 4.84L114.88 4.84L114.88 4.84Q115.85 4.84 116.39 5.25L116.39 5.25L116.39 5.25Q116.93 5.66 116.93 6.40L116.93 6.40L116.93 6.40Q116.93 6.89 116.70 7.31L116.70 7.31L116.70 7.31Q116.47 7.73 115.93 8.22L115.93 8.22L115.93 8.22Q115.61 8.12 115.37 7.88L115.37 7.88L115.37 7.88Q115.14 7.63 115.08 7.31L115.08 7.31L115.08 7.31Q115.56 6.96 115.75 6.66L115.75 6.66L115.75 6.66Q115.95 6.37 115.95 5.96L115.95 5.96L115.95 5.96Q115.95 5.32 115.18 5.32L115.18 5.32L115.18 5.32Q114.55 5.32 113.83 5.79L113.83 5.79L113.83 5.79Q113.11 6.26 112.38 7.14L112.38 7.14L112.38 7.14Q111.34 8.39 110.87 9.71L110.87 9.71L110.87 9.71Q110.39 11.03 110.39 12.68L110.39 12.68L110.39 12.68Q110.39 13.30 110.52 13.80L110.52 13.80L110.52 13.80Q110.64 14.31 110.85 14.69L110.85 14.69L110.85 14.69Q111.06 15.06 111.35 15.29L111.35 15.29L111.35 15.29Q111.64 15.51 111.97 15.54L111.97 15.54L111.97 15.54Q112.42 15.44 112.87 15.09L112.87 15.09L112.87 15.09Q113.32 14.73 113.69 14.25L113.69 14.25L113.69 14.25Q114.06 13.76 114.32 13.21L114.32 13.21L114.32 13.21Q114.58 12.66 114.63 12.15L114.63 12.15L114.63 12.15Q114.24 12.24 113.88 12.31L113.88 12.31L113.88 12.31Q113.53 12.39 113.20 12.39L113.20 12.39L113.20 12.39Q112.78 12.39 112.47 12.18L112.47 12.18L112.47 12.18Q112.15 11.97 112.04 11.61L112.04 11.61L112.04 11.61Q112.29 11.47 112.78 11.31L112.78 11.31L112.78 11.31Q113.26 11.16 113.81 11.03L113.81 11.03L113.81 11.03Q114.35 10.89 114.88 10.81L114.88 10.81L114.88 10.81Q115.40 10.72 115.74 10.72ZM139.62 14.38L139.62 14.38L139.62 14.38Q139.97 14.98 139.97 15.54L139.97 15.54L139.97 15.54Q139.97 15.67 139.95 15.77L139.95 15.77L139.95 15.77Q139.93 15.88 139.90 15.99L139.90 15.99L139.90 15.99Q139.66 15.96 139.41 15.95L139.41 15.95L139.41 15.95Q139.15 15.93 138.87 15.93L138.87 15.93L138.87 15.93Q138.53 15.93 138.19 15.95L138.19 15.95L138.19 15.95Q137.84 15.97 137.42 16.02L137.42 16.02L137.42 16.02Q137.00 16.06 136.49 16.13L136.49 16.13L136.49 16.13Q135.97 16.20 135.28 16.31L135.28 16.31L135.28 16.31Q134.96 16.20 134.64 15.87L134.64 15.87L134.64 15.87Q134.32 15.54 134.04 15.08L134.04 15.08L134.04 15.08Q134.18 14.77 134.39 14.31L134.39 14.31L134.39 14.31Q134.60 13.86 134.88 13.21L134.88 13.21L134.88 13.21Q135.16 12.56 135.50 11.68L135.50 11.68L135.50 11.68Q135.84 10.81 136.23 9.66L136.23 9.66L136.23 9.66Q136.49 8.90 136.67 8.33L136.67 8.33L136.67 8.33Q136.85 7.76 137.00 7.22L137.00 7.22L137.00 7.22Q137.14 6.68 137.28 6.09L137.28 6.09L137.28 6.09Q137.42 5.50 137.59 4.73L137.59 4.73L137.59 4.73Q138.15 4.84 138.56 5.14L138.56 5.14L138.56 5.14Q138.98 5.45 139.36 6.01L139.36 6.01L139.36 6.01Q139.24 6.19 139.06 6.59L139.06 6.59L139.06 6.59Q138.88 7 138.63 7.58L138.63 7.58L138.63 7.58Q138.39 8.16 138.10 8.90L138.10 8.90L138.10 8.90Q137.80 9.63 137.48 10.47L137.48 10.47L137.48 10.47Q137.17 11.30 136.88 12.03L136.88 12.03L136.88 12.03Q136.58 12.75 136.35 13.34L136.35 13.34L136.35 13.34Q136.12 13.93 135.98 14.35L135.98 14.35L135.98 14.35Q135.84 14.77 135.84 14.98L135.84 14.98L135.84 14.98Q136.07 14.97 136.25 14.95L136.25 14.95L136.25 14.95Q136.43 14.94 136.63 14.90L136.63 14.90L136.63 14.90Q136.82 14.87 137.05 14.82L137.05 14.82L137.05 14.82Q137.28 14.77 137.61 14.69L137.61 14.69L137.61 14.69Q137.89 14.62 138.12 14.57L138.12 14.57L138.12 14.57Q138.36 14.52 138.59 14.48L138.59 14.48L138.59 14.48Q138.82 14.45 139.07 14.43L139.07 14.43L139.07 14.43Q139.31 14.41 139.62 14.38ZM148.58 14.38L148.58 14.38L148.58 14.38Q148.58 13.87 148.74 13.07L148.74 13.07L148.74 13.07Q148.90 12.26 149.16 11.33L149.16 11.33L149.16 11.33Q149.42 10.40 149.76 9.43L149.76 9.43L149.76 9.43Q150.09 8.46 150.44 7.60L150.44 7.60L150.44 7.60Q150.79 6.75 151.13 6.10L151.13 6.10L151.13 6.10Q151.47 5.46 151.73 5.18L151.73 5.18L151.73 5.18Q151.87 5.19 152.10 5.29L152.10 5.29L152.10 5.29Q152.33 5.38 152.57 5.50L152.57 5.50L152.57 5.50Q152.81 5.63 153.01 5.78L153.01 5.78L153.01 5.78Q153.20 5.92 153.26 6.05L153.26 6.05L153.26 6.05Q152.85 6.41 152.45 7.15L152.45 7.15L152.45 7.15Q152.05 7.88 151.68 8.82L151.68 8.82L151.68 8.82Q151.31 9.76 150.99 10.80L150.99 10.80L150.99 10.80Q150.67 11.84 150.43 12.82L150.43 12.82L150.43 12.82Q150.19 13.80 150.06 14.64L150.06 14.64L150.06 14.64Q149.93 15.48 149.93 16.00L149.93 16.00L149.93 16.00Q149.93 16.24 149.97 16.30L149.97 16.30L149.97 16.30Q149.66 16.28 149.52 16.19L149.52 16.19L149.52 16.19Q149.38 16.10 149.30 16.00L149.30 16.00L149.30 16.00Q149.23 15.89 149.16 15.79L149.16 15.79L149.16 15.79Q149.10 15.68 148.97 15.62L148.97 15.62L148.97 15.62Q148.88 15.58 148.81 15.43L148.81 15.43L148.81 15.43Q148.74 15.27 148.69 15.09L148.69 15.09L148.69 15.09Q148.64 14.90 148.61 14.70L148.61 14.70L148.61 14.70Q148.58 14.50 148.58 14.38ZM165.44 9.34L165.44 9.34L165.44 9.34Q165.89 9.34 166.14 9.59L166.14 9.59L166.14 9.59Q166.40 9.84 166.40 10.29L166.40 10.29L166.40 10.29Q166.40 10.40 166.39 10.52L166.39 10.52L166.39 10.52Q166.38 10.64 166.33 10.72L166.33 10.72L166.33 10.72Q166.15 10.70 165.93 10.68L165.93 10.68L165.93 10.68Q165.70 10.65 165.40 10.65L165.40 10.65L165.40 10.65Q164.77 10.65 164.14 10.77L164.14 10.77L164.14 10.77Q163.51 10.88 162.93 10.95L162.93 10.95L162.93 10.95Q162.30 12.43 161.90 13.73L161.90 13.73L161.90 13.73Q161.49 15.04 161.27 16.31L161.27 16.31L161.27 16.31Q160.79 16.20 160.43 15.90L160.43 15.90L160.43 15.90Q160.06 15.61 159.74 15.08L159.74 15.08L159.74 15.08Q159.84 14.85 159.98 14.54L159.98 14.54L159.98 14.54Q160.12 14.22 160.31 13.74L160.31 13.74L160.31 13.74Q160.51 13.26 160.78 12.56L160.78 12.56L160.78 12.56Q161.06 11.87 161.43 10.91L161.43 10.91L161.43 10.91Q160.85 10.71 160.66 10.22L160.66 10.22L160.66 10.22Q160.73 10.15 161.06 10.06L161.06 10.06L161.06 10.06Q161.38 9.97 161.84 9.86L161.84 9.86L161.84 9.86Q162.05 9.31 162.20 8.88L162.20 8.88L162.20 8.88Q162.36 8.46 162.48 8.07L162.48 8.07L162.48 8.07Q162.61 7.69 162.71 7.32L162.71 7.32L162.71 7.32Q162.82 6.94 162.90 6.52L162.90 6.52L162.83 6.52L162.83 6.52Q162.30 6.52 161.97 6.27L161.97 6.27L161.97 6.27Q161.64 6.02 161.64 5.61L161.64 5.61L161.64 5.61Q161.64 5.50 161.68 5.35L161.68 5.35L161.68 5.35Q161.71 5.19 161.77 5.08L161.77 5.08L161.77 5.08Q162.04 5.12 162.29 5.14L162.29 5.14L162.29 5.14Q162.55 5.15 162.97 5.15L162.97 5.15L162.97 5.15Q163.86 5.15 164.63 5.10L164.63 5.10L164.63 5.10Q165.40 5.05 166.02 5.00L166.02 5.00L166.02 5.00Q166.64 4.94 167.09 4.89L167.09 4.89L167.09 4.89Q167.54 4.84 167.78 4.84L167.78 4.84L167.78 4.84Q168.10 4.84 168.35 5.18L168.35 5.18L168.35 5.18Q168.60 5.52 168.74 6.13L168.74 6.13L168.74 6.13Q168.29 6.09 168.02 6.08L168.02 6.08L168.02 6.08Q167.75 6.06 167.54 6.06L167.54 6.06L167.54 6.06Q166.82 6.06 166.23 6.13L166.23 6.13L166.23 6.13Q165.63 6.19 165.10 6.27L165.10 6.27L165.10 6.27Q165.02 6.40 164.91 6.59L164.91 6.59L164.91 6.59Q164.81 6.79 164.64 7.15L164.64 7.15L164.64 7.15Q164.47 7.50 164.21 8.08L164.21 8.08L164.21 8.08Q163.95 8.65 163.56 9.53L163.56 9.53L163.56 9.53Q164.11 9.45 164.60 9.39L164.60 9.39L164.60 9.39Q165.10 9.34 165.44 9.34ZM180.07 9.21L180.07 9.21L180.07 9.21Q180.53 9.21 180.79 9.46L180.79 9.46L180.79 9.46Q181.05 9.72 181.05 10.16L181.05 10.16L181.05 10.16Q181.05 10.28 181.03 10.39L181.03 10.39L181.03 10.39Q181.01 10.51 180.98 10.60L180.98 10.60L180.98 10.60Q180.80 10.57 180.57 10.55L180.57 10.55L180.57 10.55Q180.35 10.53 180.04 10.53L180.04 10.53L180.04 10.53Q179.44 10.53 178.82 10.63L178.82 10.63L178.82 10.63Q178.21 10.74 177.65 10.81L177.65 10.81L177.65 10.81Q177.32 11.55 177.06 12.24L177.06 12.24L177.06 12.24Q176.79 12.94 176.60 13.51L176.60 13.51L176.60 13.51Q176.41 14.08 176.31 14.50L176.31 14.50L176.31 14.50Q176.20 14.92 176.19 15.13L176.19 15.13L176.19 15.13Q177.32 14.90 178.48 14.73L178.48 14.73L178.48 14.73Q179.63 14.56 180.91 14.48L180.91 14.48L180.91 14.48Q181.06 14.71 181.17 14.99L181.17 14.99L181.17 14.99Q181.27 15.27 181.27 15.60L181.27 15.60L181.27 15.60Q181.27 15.68 181.27 15.78L181.27 15.78L181.27 15.78Q181.27 15.88 181.24 15.97L181.24 15.97L181.24 15.97Q180.85 15.96 180.42 15.95L180.42 15.95L180.42 15.95Q179.98 15.95 179.28 15.95L179.28 15.95L179.28 15.95Q178.82 15.95 178.41 15.97L178.41 15.97L178.41 15.97Q178.00 15.99 177.58 16.03L177.58 16.03L177.58 16.03Q177.16 16.07 176.69 16.14L176.69 16.14L176.69 16.14Q176.22 16.21 175.63 16.31L175.63 16.31L175.63 16.31Q174.99 16.06 174.38 15.08L174.38 15.08L174.38 15.08Q174.62 14.57 175.05 13.54L175.05 13.54L175.05 13.54Q175.48 12.52 176.13 10.79L176.13 10.79L176.13 10.79Q175.50 10.60 175.31 10.09L175.31 10.09L175.31 10.09Q175.38 10.02 175.71 9.92L175.71 9.92L175.71 9.92Q176.05 9.81 176.54 9.70L176.54 9.70L176.54 9.70Q176.75 9.16 176.90 8.75L176.90 8.75L176.90 8.75Q177.04 8.34 177.16 7.99L177.16 7.99L177.16 7.99Q177.27 7.63 177.36 7.29L177.36 7.29L177.36 7.29Q177.45 6.94 177.53 6.54L177.53 6.54L177.53 6.54Q177.04 6.51 176.76 6.27L176.76 6.27L176.76 6.27Q176.48 6.02 176.48 5.63L176.48 5.63L176.48 5.63Q176.48 5.52 176.52 5.36L176.52 5.36L176.52 5.36Q176.55 5.21 176.60 5.10L176.60 5.10L176.60 5.10Q176.88 5.14 177.13 5.15L177.13 5.15L177.13 5.15Q177.39 5.17 177.81 5.17L177.81 5.17L177.81 5.17Q178.70 5.17 179.47 5.12L179.47 5.12L179.47 5.12Q180.24 5.07 180.86 5.01L180.86 5.01L180.86 5.01Q181.48 4.96 181.93 4.91L181.93 4.91L181.93 4.91Q182.38 4.86 182.62 4.86L182.62 4.86L182.62 4.86Q182.94 4.86 183.19 5.19L183.19 5.19L183.19 5.19Q183.44 5.53 183.57 6.15L183.57 6.15L183.57 6.15Q183.13 6.10 182.86 6.09L182.86 6.09L182.86 6.09Q182.59 6.08 182.38 6.08L182.38 6.08L182.38 6.08Q181.61 6.08 180.97 6.15L180.97 6.15L180.97 6.15Q180.33 6.23 179.75 6.31L179.75 6.31L179.75 6.31Q179.66 6.44 179.56 6.64L179.56 6.64L179.56 6.64Q179.45 6.83 179.28 7.18L179.28 7.18L179.28 7.18Q179.12 7.53 178.87 8.06L178.87 8.06L178.87 8.06Q178.63 8.60 178.28 9.39L178.28 9.39L178.28 9.39Q178.81 9.31 179.28 9.26L179.28 9.26L179.28 9.26Q179.75 9.21 180.07 9.21ZM200.72 12.43L200.72 12.43L200.72 12.43Q200.72 11.45 200.95 10.51L200.95 10.51L200.95 10.51Q201.18 9.56 201.60 8.71L201.60 8.71L201.60 8.71Q202.02 7.87 202.60 7.16L202.60 7.16L202.60 7.16Q203.18 6.45 203.88 5.94L203.88 5.94L203.88 5.94Q204.57 5.42 205.35 5.13L205.35 5.13L205.35 5.13Q206.14 4.84 206.96 4.84L206.96 4.84L206.96 4.84Q207.93 4.84 208.47 5.25L208.47 5.25L208.47 5.25Q209.01 5.66 209.01 6.38L209.01 6.38L209.01 6.38Q209.01 6.66 208.93 6.96L208.93 6.96L208.93 6.96Q208.85 7.25 208.70 7.54L208.70 7.54L208.70 7.54Q208.56 7.83 208.36 8.09L208.36 8.09L208.36 8.09Q208.17 8.36 207.93 8.55L207.93 8.55L207.93 8.55Q207.56 8.50 207.30 8.22L207.30 8.22L207.30 8.22Q207.03 7.95 206.96 7.59L206.96 7.59L206.96 7.59Q207.45 7.18 207.74 6.74L207.74 6.74L207.74 6.74Q208.03 6.30 208.03 5.94L208.03 5.94L208.03 5.94Q208.03 5.32 207.26 5.32L207.26 5.32L207.26 5.32Q206.93 5.32 206.59 5.45L206.59 5.45L206.59 5.45Q206.25 5.59 205.90 5.82L205.90 5.82L205.90 5.82Q205.55 6.06 205.22 6.40L205.22 6.40L205.22 6.40Q204.89 6.73 204.61 7.14L204.61 7.14L204.61 7.14Q202.66 9.94 202.66 12.87L202.66 12.87L202.66 12.87Q202.66 13.90 202.99 14.53L202.99 14.53L202.99 14.53Q203.31 15.16 203.84 15.27L203.84 15.27L203.84 15.27Q204.44 15.13 205.37 14.50L205.37 14.50L205.37 14.50Q206.29 13.87 207.38 12.87L207.38 12.87L207.38 12.87Q207.52 13.01 207.55 13.16L207.55 13.16L207.55 13.16Q207.14 13.69 206.71 14.18L206.71 14.18L206.71 14.18Q206.28 14.67 205.85 15.08L205.85 15.08L205.85 15.08Q205.42 15.48 205.01 15.79L205.01 15.79L205.01 15.79Q204.60 16.10 204.25 16.27L204.25 16.27L204.25 16.27Q202.51 16.24 201.61 15.27L201.61 15.27L201.61 15.27Q200.72 14.31 200.72 12.43ZM221.06 14.36L221.06 14.36L221.06 14.36Q221.06 13.78 221.26 12.85L221.26 12.85L221.26 12.85Q221.45 11.93 221.77 10.88L221.77 10.88L221.77 10.88Q220.85 10.95 219.92 11.06L219.92 11.06L219.92 11.06Q218.99 11.17 218.30 11.19L218.30 11.19L218.30 11.19Q217.67 12.66 217.30 13.89L217.30 13.89L217.30 13.89Q216.93 15.13 216.72 16.31L216.72 16.31L216.72 16.31Q216.19 16.18 215.84 15.87L215.84 15.87L215.84 15.87Q215.49 15.55 215.19 15.08L215.19 15.08L215.19 15.08Q215.31 14.85 215.45 14.50L215.45 14.50L215.45 14.50Q215.60 14.15 215.80 13.66L215.80 13.66L215.80 13.66Q216.01 13.16 216.26 12.50L216.26 12.50L216.26 12.50Q216.52 11.83 216.86 10.95L216.86 10.95L216.86 10.95Q216.40 10.75 216.24 10.40L216.24 10.40L216.24 10.40Q216.31 10.35 216.56 10.28L216.56 10.28L216.56 10.28Q216.80 10.22 217.17 10.15L217.17 10.15L217.35 9.70L217.35 9.70Q217.64 8.95 217.83 8.43L217.83 8.43L217.83 8.43Q218.02 7.91 218.15 7.41L218.15 7.41L218.15 7.41Q218.29 6.92 218.41 6.31L218.41 6.31L218.41 6.31Q218.53 5.71 218.69 4.79L218.69 4.79L218.69 4.79Q219.28 4.90 219.76 5.31L219.76 5.31L219.76 5.31Q220.25 5.71 220.60 6.29L220.60 6.29L220.60 6.29Q220.47 6.45 220.29 6.79L220.29 6.79L220.29 6.79Q220.11 7.13 219.89 7.59L219.89 7.59L219.89 7.59Q219.67 8.06 219.42 8.64L219.42 8.64L219.42 8.64Q219.17 9.23 218.88 9.87L218.88 9.87L218.88 9.87Q219.74 9.76 220.63 9.66L220.63 9.66L220.63 9.66Q221.52 9.56 222.21 9.52L222.21 9.52L222.21 9.52Q222.46 8.79 222.73 8.10L222.73 8.10L222.73 8.10Q223.01 7.41 223.27 6.83L223.27 6.83L223.27 6.83Q223.54 6.26 223.78 5.82L223.78 5.82L223.78 5.82Q224.03 5.39 224.22 5.18L224.22 5.18L224.22 5.18Q224.36 5.19 224.59 5.29L224.59 5.29L224.59 5.29Q224.83 5.38 225.06 5.50L225.06 5.50L225.06 5.50Q225.30 5.63 225.50 5.78L225.50 5.78L225.50 5.78Q225.69 5.92 225.76 6.05L225.76 6.05L225.76 6.05Q225.51 6.29 225.26 6.66L225.26 6.66L225.26 6.66Q225.01 7.04 224.76 7.53L224.76 7.53L224.76 7.53Q224.52 8.02 224.28 8.60L224.28 8.60L224.28 8.60Q224.04 9.17 223.83 9.79L223.83 9.79L223.83 9.79Q224.11 10.04 224.11 10.42L224.11 10.42L224.11 10.42Q224.11 10.68 224.00 10.91L224.00 10.91L224.00 10.91Q223.87 10.88 223.75 10.87L223.75 10.87L223.75 10.87Q223.62 10.86 223.48 10.85L223.48 10.85L223.48 10.85Q223.24 11.61 223.05 12.35L223.05 12.35L223.05 12.35Q222.85 13.09 222.72 13.76L222.72 13.76L222.72 13.76Q222.59 14.43 222.51 14.99L222.51 14.99L222.51 14.99Q222.43 15.55 222.43 15.93L222.43 15.93L222.43 15.93Q222.43 16.07 222.44 16.16L222.44 16.16L222.44 16.16Q222.45 16.24 222.46 16.30L222.46 16.30L222.46 16.30Q222.15 16.28 222.01 16.19L222.01 16.19L222.01 16.19Q221.87 16.10 221.80 16.00L221.80 16.00L221.80 16.00Q221.73 15.89 221.68 15.79L221.68 15.79L221.68 15.79Q221.62 15.68 221.49 15.62L221.49 15.62L221.49 15.62Q221.40 15.58 221.31 15.43L221.31 15.43L221.31 15.43Q221.23 15.27 221.17 15.08L221.17 15.08L221.17 15.08Q221.12 14.88 221.09 14.69L221.09 14.69L221.09 14.69Q221.06 14.49 221.06 14.36ZM232.68 16.24L232.68 16.24L232.68 16.24Q232.01 16.04 231.75 15.85L231.75 15.85L231.75 15.85Q231.49 15.65 231.49 15.36L231.49 15.36L231.49 15.36Q231.49 15.13 231.62 14.73L231.62 14.73L231.62 14.73Q231.74 14.32 231.99 13.77L231.99 13.77L231.99 13.77Q232.23 13.22 232.57 12.54L232.57 12.54L232.57 12.54Q232.92 11.87 233.35 11.10L233.35 11.10L233.35 11.10Q232.99 11.09 232.70 11.08L232.70 11.08L232.70 11.08Q232.41 11.07 232.23 11.07L232.23 11.07L232.23 11.07Q232.32 10.86 232.71 10.71L232.71 10.71L232.71 10.71Q233.10 10.56 233.74 10.44L233.74 10.44L233.74 10.44Q234.29 9.53 234.91 8.71L234.91 8.71L234.91 8.71Q235.54 7.88 236.17 7.19L236.17 7.19L236.17 7.19Q236.80 6.50 237.43 5.97L237.43 5.97L237.43 5.97Q238.06 5.45 238.63 5.14L238.63 5.14L238.63 5.14Q238.64 5.04 238.65 4.97L238.65 4.97L238.65 4.97Q238.66 4.90 238.66 4.87L238.66 4.87L238.66 4.87Q238.85 4.87 239.18 4.97L239.18 4.97L239.18 4.97Q239.51 5.07 239.83 5.21L239.83 5.21L239.83 5.21Q240.14 5.35 240.39 5.49L240.39 5.49L240.39 5.49Q240.63 5.64 240.66 5.74L240.66 5.74L240.66 5.74Q240.20 6.55 239.75 8.17L239.75 8.17L239.75 8.17Q239.30 9.79 239.01 12.04L239.01 12.04L239.01 12.04Q238.94 12.60 238.89 13.31L238.89 13.31L238.89 13.31Q238.84 14.03 238.84 14.91L238.84 14.91L238.84 14.91Q238.84 15.22 238.84 15.54L238.84 15.54L238.84 15.54Q238.84 15.86 238.87 16.21L238.87 16.21L238.87 16.21Q238.84 16.23 238.81 16.23L238.81 16.23L238.81 16.23Q238.78 16.23 238.70 16.23L238.70 16.23L238.70 16.23Q238.50 16.23 238.24 16.16L238.24 16.16L238.24 16.16Q237.99 16.10 237.74 16.01L237.74 16.01L237.74 16.01Q237.50 15.92 237.32 15.81L237.32 15.81L237.32 15.81Q237.15 15.69 237.10 15.61L237.10 15.61L237.10 15.61Q237.09 15.43 237.09 15.25L237.09 15.25L237.09 15.25Q237.09 15.08 237.09 14.88L237.09 14.88L237.09 14.88Q237.09 14.01 237.15 13.12L237.15 13.12L237.15 13.12Q237.22 12.22 237.37 11.27L237.37 11.27L237.37 11.27Q237.17 11.26 236.85 11.23L236.85 11.23L236.85 11.23Q236.53 11.21 236.13 11.20L236.13 11.20L236.13 11.20Q235.73 11.19 235.28 11.16L235.28 11.16L235.28 11.16Q234.82 11.14 234.39 11.13L234.39 11.13L234.39 11.13Q234.05 11.76 233.76 12.38L233.76 12.38L233.76 12.38Q233.46 13.01 233.25 13.64L233.25 13.64L233.25 13.64Q233.02 14.31 232.87 14.98L232.87 14.98L232.87 14.98Q232.72 15.65 232.68 16.24ZM238.08 7.83L238.08 7.83L238.08 7.83Q238.14 7.63 238.22 7.29L238.22 7.29L238.22 7.29Q238.29 6.94 238.36 6.57L238.36 6.57L238.36 6.57Q238.01 6.69 237.59 7.03L237.59 7.03L237.59 7.03Q237.16 7.36 236.70 7.86L236.70 7.86L236.70 7.86Q236.25 8.36 235.78 8.98L235.78 8.98L235.78 8.98Q235.31 9.60 234.88 10.30L234.88 10.30L234.88 10.30Q236.05 10.21 237.55 10.18L237.55 10.18L237.55 10.18Q237.66 9.59 237.80 9.01L237.80 9.01L237.80 9.01Q237.93 8.43 238.08 7.83ZM253.25 14.38L253.25 14.38L253.25 14.38Q253.60 14.98 253.60 15.54L253.60 15.54L253.60 15.54Q253.60 15.67 253.57 15.77L253.57 15.77L253.57 15.77Q253.55 15.88 253.53 15.99L253.53 15.99L253.53 15.99Q253.29 15.96 253.03 15.95L253.03 15.95L253.03 15.95Q252.77 15.93 252.49 15.93L252.49 15.93L252.49 15.93Q252.15 15.93 251.81 15.95L251.81 15.95L251.81 15.95Q251.47 15.97 251.05 16.02L251.05 16.02L251.05 16.02Q250.63 16.06 250.11 16.13L250.11 16.13L250.11 16.13Q249.59 16.20 248.91 16.31L248.91 16.31L248.91 16.31Q248.58 16.20 248.26 15.87L248.26 15.87L248.26 15.87Q247.94 15.54 247.66 15.08L247.66 15.08L247.66 15.08Q247.80 14.77 248.01 14.31L248.01 14.31L248.01 14.31Q248.22 13.86 248.50 13.21L248.50 13.21L248.50 13.21Q248.78 12.56 249.12 11.68L249.12 11.68L249.12 11.68Q249.47 10.81 249.86 9.66L249.86 9.66L249.86 9.66Q250.11 8.90 250.29 8.33L250.29 8.33L250.29 8.33Q250.47 7.76 250.62 7.22L250.62 7.22L250.62 7.22Q250.77 6.68 250.91 6.09L250.91 6.09L250.91 6.09Q251.05 5.50 251.22 4.73L251.22 4.73L251.22 4.73Q251.78 4.84 252.19 5.14L252.19 5.14L252.19 5.14Q252.60 5.45 252.98 6.01L252.98 6.01L252.98 6.01Q252.87 6.19 252.69 6.59L252.69 6.59L252.69 6.59Q252.50 7 252.26 7.58L252.26 7.58L252.26 7.58Q252.01 8.16 251.72 8.90L251.72 8.90L251.72 8.90Q251.43 9.63 251.10 10.47L251.10 10.47L251.10 10.47Q250.80 11.30 250.50 12.03L250.50 12.03L250.50 12.03Q250.21 12.75 249.98 13.34L249.98 13.34L249.98 13.34Q249.75 13.93 249.61 14.35L249.61 14.35L249.61 14.35Q249.47 14.77 249.47 14.98L249.47 14.98L249.47 14.98Q249.69 14.97 249.87 14.95L249.87 14.95L249.87 14.95Q250.05 14.94 250.25 14.90L250.25 14.90L250.25 14.90Q250.45 14.87 250.68 14.82L250.68 14.82L250.68 14.82Q250.91 14.77 251.23 14.69L251.23 14.69L251.23 14.69Q251.51 14.62 251.75 14.57L251.75 14.57L251.75 14.57Q251.99 14.52 252.22 14.48L252.22 14.48L252.22 14.48Q252.45 14.45 252.69 14.43L252.69 14.43L252.69 14.43Q252.94 14.41 253.25 14.38ZM267.25 14.38L267.25 14.38L267.25 14.38Q267.60 14.98 267.60 15.54L267.60 15.54L267.60 15.54Q267.60 15.67 267.57 15.77L267.57 15.77L267.57 15.77Q267.55 15.88 267.53 15.99L267.53 15.99L267.53 15.99Q267.29 15.96 267.03 15.95L267.03 15.95L267.03 15.95Q266.77 15.93 266.49 15.93L266.49 15.93L266.49 15.93Q266.15 15.93 265.81 15.95L265.81 15.95L265.81 15.95Q265.47 15.97 265.05 16.02L265.05 16.02L265.05 16.02Q264.63 16.06 264.11 16.13L264.11 16.13L264.11 16.13Q263.59 16.20 262.91 16.31L262.91 16.31L262.91 16.31Q262.58 16.20 262.26 15.87L262.26 15.87L262.26 15.87Q261.94 15.54 261.66 15.08L261.66 15.08L261.66 15.08Q261.80 14.77 262.01 14.31L262.01 14.31L262.01 14.31Q262.22 13.86 262.50 13.21L262.50 13.21L262.50 13.21Q262.78 12.56 263.12 11.68L263.12 11.68L263.12 11.68Q263.47 10.81 263.86 9.66L263.86 9.66L263.86 9.66Q264.11 8.90 264.29 8.33L264.29 8.33L264.29 8.33Q264.47 7.76 264.62 7.22L264.62 7.22L264.62 7.22Q264.77 6.68 264.91 6.09L264.91 6.09L264.91 6.09Q265.05 5.50 265.22 4.73L265.22 4.73L265.22 4.73Q265.78 4.84 266.19 5.14L266.19 5.14L266.19 5.14Q266.60 5.45 266.98 6.01L266.98 6.01L266.98 6.01Q266.87 6.19 266.69 6.59L266.69 6.59L266.69 6.59Q266.50 7 266.26 7.58L266.26 7.58L266.26 7.58Q266.01 8.16 265.72 8.90L265.72 8.90L265.72 8.90Q265.43 9.63 265.10 10.47L265.10 10.47L265.10 10.47Q264.80 11.30 264.50 12.03L264.50 12.03L264.50 12.03Q264.21 12.75 263.98 13.34L263.98 13.34L263.98 13.34Q263.75 13.93 263.61 14.35L263.61 14.35L263.61 14.35Q263.47 14.77 263.47 14.98L263.47 14.98L263.47 14.98Q263.69 14.97 263.87 14.95L263.87 14.95L263.87 14.95Q264.05 14.94 264.25 14.90L264.25 14.90L264.25 14.90Q264.45 14.87 264.68 14.82L264.68 14.82L264.68 14.82Q264.91 14.77 265.23 14.69L265.23 14.69L265.23 14.69Q265.51 14.62 265.75 14.57L265.75 14.57L265.75 14.57Q265.99 14.52 266.22 14.48L266.22 14.48L266.22 14.48Q266.45 14.45 266.69 14.43L266.69 14.43L266.69 14.43Q266.94 14.41 267.25 14.38ZM281.67 9.21L281.67 9.21L281.67 9.21Q282.13 9.21 282.39 9.46L282.39 9.46L282.39 9.46Q282.65 9.72 282.65 10.16L282.65 10.16L282.65 10.16Q282.65 10.28 282.62 10.39L282.62 10.39L282.62 10.39Q282.60 10.51 282.58 10.60L282.58 10.60L282.58 10.60Q282.39 10.57 282.17 10.55L282.17 10.55L282.17 10.55Q281.95 10.53 281.64 10.53L281.64 10.53L281.64 10.53Q281.04 10.53 280.42 10.63L280.42 10.63L280.42 10.63Q279.80 10.74 279.24 10.81L279.24 10.81L279.24 10.81Q278.92 11.55 278.66 12.24L278.66 12.24L278.66 12.24Q278.39 12.94 278.20 13.51L278.20 13.51L278.20 13.51Q278.01 14.08 277.91 14.50L277.91 14.50L277.91 14.50Q277.80 14.92 277.79 15.13L277.79 15.13L277.79 15.13Q278.92 14.90 280.08 14.73L280.08 14.73L280.08 14.73Q281.23 14.56 282.51 14.48L282.51 14.48L282.51 14.48Q282.66 14.71 282.76 14.99L282.76 14.99L282.76 14.99Q282.87 15.27 282.87 15.60L282.87 15.60L282.87 15.60Q282.87 15.68 282.87 15.78L282.87 15.78L282.87 15.78Q282.87 15.88 282.84 15.97L282.84 15.97L282.84 15.97Q282.45 15.96 282.02 15.95L282.02 15.95L282.02 15.95Q281.58 15.95 280.88 15.95L280.88 15.95L280.88 15.95Q280.42 15.95 280.01 15.97L280.01 15.97L280.01 15.97Q279.59 15.99 279.17 16.03L279.17 16.03L279.17 16.03Q278.75 16.07 278.28 16.14L278.28 16.14L278.28 16.14Q277.82 16.21 277.23 16.31L277.23 16.31L277.23 16.31Q276.58 16.06 275.98 15.08L275.98 15.08L275.98 15.08Q276.22 14.57 276.65 13.54L276.65 13.54L276.65 13.54Q277.07 12.52 277.73 10.79L277.73 10.79L277.73 10.79Q277.10 10.60 276.91 10.09L276.91 10.09L276.91 10.09Q276.98 10.02 277.31 9.92L277.31 9.92L277.31 9.92Q277.65 9.81 278.14 9.70L278.14 9.70L278.14 9.70Q278.35 9.16 278.49 8.75L278.49 8.75L278.49 8.75Q278.64 8.34 278.75 7.99L278.75 7.99L278.75 7.99Q278.87 7.63 278.96 7.29L278.96 7.29L278.96 7.29Q279.05 6.94 279.13 6.54L279.13 6.54L279.13 6.54Q278.64 6.51 278.36 6.27L278.36 6.27L278.36 6.27Q278.08 6.02 278.08 5.63L278.08 5.63L278.08 5.63Q278.08 5.52 278.12 5.36L278.12 5.36L278.12 5.36Q278.15 5.21 278.19 5.10L278.19 5.10L278.19 5.10Q278.47 5.14 278.73 5.15L278.73 5.15L278.73 5.15Q278.99 5.17 279.41 5.17L279.41 5.17L279.41 5.17Q280.29 5.17 281.06 5.12L281.06 5.12L281.06 5.12Q281.83 5.07 282.46 5.01L282.46 5.01L282.46 5.01Q283.08 4.96 283.53 4.91L283.53 4.91L283.53 4.91Q283.98 4.86 284.21 4.86L284.21 4.86L284.21 4.86Q284.54 4.86 284.79 5.19L284.79 5.19L284.79 5.19Q285.04 5.53 285.17 6.15L285.17 6.15L285.17 6.15Q284.73 6.10 284.46 6.09L284.46 6.09L284.46 6.09Q284.19 6.08 283.98 6.08L283.98 6.08L283.98 6.08Q283.21 6.08 282.57 6.15L282.57 6.15L282.57 6.15Q281.93 6.23 281.34 6.31L281.34 6.31L281.34 6.31Q281.26 6.44 281.15 6.64L281.15 6.64L281.15 6.64Q281.05 6.83 280.88 7.18L280.88 7.18L280.88 7.18Q280.71 7.53 280.47 8.06L280.47 8.06L280.47 8.06Q280.22 8.60 279.87 9.39L279.87 9.39L279.87 9.39Q280.41 9.31 280.87 9.26L280.87 9.26L280.87 9.26Q281.34 9.21 281.67 9.21ZM292.66 16.24L292.66 16.24L292.66 16.24Q291.86 16.00 291.58 15.79L291.58 15.79L291.58 15.79Q291.30 15.57 291.30 15.19L291.30 15.19L291.30 15.19Q291.30 14.77 291.49 14.01L291.49 14.01L291.49 14.01Q291.69 13.24 292.00 12.31L292.00 12.31L292.00 12.31Q292.32 11.37 292.73 10.35L292.73 10.35L292.73 10.35Q293.13 9.32 293.55 8.39L293.55 8.39L293.55 8.39Q293.97 7.45 294.37 6.67L294.37 6.67L294.37 6.67Q294.77 5.89 295.08 5.46L295.08 5.46L294.98 4.87L294.98 4.87Q295.18 4.87 295.53 4.97L295.53 4.97L295.53 4.97Q295.88 5.07 296.23 5.21L296.23 5.21L296.23 5.21Q296.59 5.35 296.86 5.49L296.86 5.49L296.86 5.49Q297.14 5.64 297.16 5.74L297.16 5.74L297.16 5.74Q297.09 6.08 297.05 6.76L297.05 6.76L297.05 6.76Q297.01 7.43 297.01 8.20L297.01 8.20L297.01 8.20Q297.01 9.73 297.13 11.19L297.13 11.19L297.13 11.19Q297.25 12.66 297.68 14.17L297.68 14.17L297.68 14.17Q297.91 13.05 298.16 11.94L298.16 11.94L298.16 11.94Q298.42 10.82 298.70 9.81L298.70 9.81L298.70 9.81Q298.98 8.79 299.26 7.92L299.26 7.92L299.26 7.92Q299.54 7.06 299.80 6.40L299.80 6.40L299.80 6.40Q300.06 5.75 300.29 5.38L300.29 5.38L300.29 5.38Q300.51 5.01 300.69 4.98L300.69 4.98L300.69 4.98Q300.85 5.01 301.03 5.10L301.03 5.10L301.03 5.10Q301.21 5.19 301.38 5.32L301.38 5.32L301.38 5.32Q301.55 5.45 301.69 5.60L301.69 5.60L301.69 5.60Q301.83 5.75 301.91 5.91L301.91 5.91L301.91 5.91Q301.46 6.09 301.02 6.76L301.02 6.76L301.02 6.76Q300.58 7.43 300.18 8.39L300.18 8.39L300.18 8.39Q299.78 9.35 299.44 10.47L299.44 10.47L299.44 10.47Q299.10 11.59 298.84 12.68L298.84 12.68L298.84 12.68Q298.58 13.76 298.43 14.69L298.43 14.69L298.43 14.69Q298.28 15.61 298.27 16.17L298.27 16.17L298.27 16.17Q298.27 16.20 298.28 16.21L298.28 16.21L298.28 16.21Q298.24 16.23 298.19 16.23L298.19 16.23L298.19 16.23Q298.14 16.23 298.10 16.23L298.10 16.23L298.10 16.23Q297.46 16.23 296.96 16.07L296.96 16.07L296.96 16.07Q296.46 15.90 296.31 15.61L296.31 15.61L296.31 15.61Q296.02 14.43 295.82 13.34L295.82 13.34L295.82 13.34Q295.62 12.25 295.49 11.16L295.49 11.16L295.49 11.16Q295.36 10.07 295.28 8.95L295.28 8.95L295.28 8.95Q295.20 7.84 295.16 6.62L295.16 6.62L295.16 6.62Q294.90 7.04 294.60 7.72L294.60 7.72L294.60 7.72Q294.31 8.40 294.03 9.21L294.03 9.21L294.03 9.21Q293.75 10.02 293.49 10.92L293.49 10.92L293.49 10.92Q293.23 11.82 293.03 12.67L293.03 12.67L293.03 12.67Q292.84 13.52 292.73 14.29L292.73 14.29L292.73 14.29Q292.61 15.05 292.61 15.61L292.61 15.61L292.61 15.61Q292.61 15.90 292.62 16.03L292.62 16.03L292.62 16.03Q292.63 16.16 292.66 16.24ZM315.73 10.72L315.73 10.72L315.73 10.72Q316.09 10.72 316.30 10.98L316.30 10.98L316.30 10.98Q316.51 11.23 316.51 11.68L316.51 11.68L316.51 11.68Q316.51 11.79 316.50 11.91L316.50 11.91L316.50 11.91Q316.48 12.03 316.46 12.11L316.46 12.11L316.46 12.11Q316.16 12.04 315.81 12.03L315.81 12.03L315.81 12.03Q315.73 12.64 315.36 13.32L315.36 13.32L315.36 13.32Q315 14 314.48 14.60L314.48 14.60L314.48 14.60Q313.96 15.19 313.35 15.64L313.35 15.64L313.35 15.64Q312.73 16.09 312.13 16.24L312.13 16.24L312.13 16.24Q310.25 16.20 309.39 15.27L309.39 15.27L309.39 15.27Q308.53 14.34 308.53 12.36L308.53 12.36L308.53 12.36Q308.53 10.92 309.06 9.57L309.06 9.57L309.06 9.57Q309.60 8.22 310.48 7.17L310.48 7.17L310.48 7.17Q311.36 6.12 312.50 5.48L312.50 5.48L312.50 5.48Q313.64 4.84 314.87 4.84L314.87 4.84L314.87 4.84Q315.84 4.84 316.38 5.25L316.38 5.25L316.38 5.25Q316.92 5.66 316.92 6.40L316.92 6.40L316.92 6.40Q316.92 6.89 316.69 7.31L316.69 7.31L316.69 7.31Q316.46 7.73 315.92 8.22L315.92 8.22L315.92 8.22Q315.60 8.12 315.36 7.88L315.36 7.88L315.36 7.88Q315.13 7.63 315.07 7.31L315.07 7.31L315.07 7.31Q315.55 6.96 315.74 6.66L315.74 6.66L315.74 6.66Q315.94 6.37 315.94 5.96L315.94 5.96L315.94 5.96Q315.94 5.32 315.17 5.32L315.17 5.32L315.17 5.32Q314.54 5.32 313.82 5.79L313.82 5.79L313.82 5.79Q313.10 6.26 312.37 7.14L312.37 7.14L312.37 7.14Q311.33 8.39 310.86 9.71L310.86 9.71L310.86 9.71Q310.38 11.03 310.38 12.68L310.38 12.68L310.38 12.68Q310.38 13.30 310.51 13.80L310.51 13.80L310.51 13.80Q310.63 14.31 310.84 14.69L310.84 14.69L310.84 14.69Q311.05 15.06 311.34 15.29L311.34 15.29L311.34 15.29Q311.63 15.51 311.96 15.54L311.96 15.54L311.96 15.54Q312.41 15.44 312.86 15.09L312.86 15.09L312.86 15.09Q313.31 14.73 313.68 14.25L313.68 14.25L313.68 14.25Q314.05 13.76 314.31 13.21L314.31 13.21L314.31 13.21Q314.57 12.66 314.62 12.15L314.62 12.15L314.62 12.15Q314.23 12.24 313.87 12.31L313.87 12.31L313.87 12.31Q313.52 12.39 313.19 12.39L313.19 12.39L313.19 12.39Q312.77 12.39 312.46 12.18L312.46 12.18L312.46 12.18Q312.14 11.97 312.03 11.61L312.03 11.61L312.03 11.61Q312.28 11.47 312.77 11.31L312.77 11.31L312.77 11.31Q313.25 11.16 313.80 11.03L313.80 11.03L313.80 11.03Q314.34 10.89 314.87 10.81L314.87 10.81L314.87 10.81Q315.39 10.72 315.73 10.72ZM329.85 9.21L329.85 9.21L329.85 9.21Q330.32 9.21 330.57 9.46L330.57 9.46L330.57 9.46Q330.83 9.72 330.83 10.16L330.83 10.16L330.83 10.16Q330.83 10.28 330.81 10.39L330.81 10.39L330.81 10.39Q330.79 10.51 330.76 10.60L330.76 10.60L330.76 10.60Q330.58 10.57 330.36 10.55L330.36 10.55L330.36 10.55Q330.13 10.53 329.83 10.53L329.83 10.53L329.83 10.53Q329.22 10.53 328.61 10.63L328.61 10.63L328.61 10.63Q327.99 10.74 327.43 10.81L327.43 10.81L327.43 10.81Q327.11 11.55 326.84 12.24L326.84 12.24L326.84 12.24Q326.58 12.94 326.39 13.51L326.39 13.51L326.39 13.51Q326.20 14.08 326.10 14.50L326.10 14.50L326.10 14.50Q325.99 14.92 325.98 15.13L325.98 15.13L325.98 15.13Q327.11 14.90 328.27 14.73L328.27 14.73L328.27 14.73Q329.42 14.56 330.69 14.48L330.69 14.48L330.69 14.48Q330.85 14.71 330.95 14.99L330.95 14.99L330.95 14.99Q331.06 15.27 331.06 15.60L331.06 15.60L331.06 15.60Q331.06 15.68 331.06 15.78L331.06 15.78L331.06 15.78Q331.06 15.88 331.03 15.97L331.03 15.97L331.03 15.97Q330.64 15.96 330.20 15.95L330.20 15.95L330.20 15.95Q329.77 15.95 329.07 15.95L329.07 15.95L329.07 15.95Q328.61 15.95 328.19 15.97L328.19 15.97L328.19 15.97Q327.78 15.99 327.36 16.03L327.36 16.03L327.36 16.03Q326.94 16.07 326.47 16.14L326.47 16.14L326.47 16.14Q326.00 16.21 325.42 16.31L325.42 16.31L325.42 16.31Q324.77 16.06 324.17 15.08L324.17 15.08L324.17 15.08Q324.41 14.57 324.84 13.54L324.84 13.54L324.84 13.54Q325.26 12.52 325.92 10.79L325.92 10.79L325.92 10.79Q325.29 10.60 325.09 10.09L325.09 10.09L325.09 10.09Q325.16 10.02 325.50 9.92L325.50 9.92L325.50 9.92Q325.84 9.81 326.33 9.70L326.33 9.70L326.33 9.70Q326.54 9.16 326.68 8.75L326.68 8.75L326.68 8.75Q326.83 8.34 326.94 7.99L326.94 7.99L326.94 7.99Q327.05 7.63 327.15 7.29L327.15 7.29L327.15 7.29Q327.24 6.94 327.32 6.54L327.32 6.54L327.32 6.54Q326.83 6.51 326.55 6.27L326.55 6.27L326.55 6.27Q326.27 6.02 326.27 5.63L326.27 5.63L326.27 5.63Q326.27 5.52 326.31 5.36L326.31 5.36L326.31 5.36Q326.34 5.21 326.38 5.10L326.38 5.10L326.38 5.10Q326.66 5.14 326.92 5.15L326.92 5.15L326.92 5.15Q327.18 5.17 327.60 5.17L327.60 5.17L327.60 5.17Q328.48 5.17 329.25 5.12L329.25 5.12L329.25 5.12Q330.02 5.07 330.65 5.01L330.65 5.01L330.65 5.01Q331.27 4.96 331.72 4.91L331.72 4.91L331.72 4.91Q332.16 4.86 332.40 4.86L332.40 4.86L332.40 4.86Q332.72 4.86 332.98 5.19L332.98 5.19L332.98 5.19Q333.23 5.53 333.35 6.15L333.35 6.15L333.35 6.15Q332.92 6.10 332.65 6.09L332.65 6.09L332.65 6.09Q332.37 6.08 332.16 6.08L332.16 6.08L332.16 6.08Q331.39 6.08 330.76 6.15L330.76 6.15L330.76 6.15Q330.12 6.23 329.53 6.31L329.53 6.31L329.53 6.31Q329.45 6.44 329.34 6.64L329.34 6.64L329.34 6.64Q329.24 6.83 329.07 7.18L329.07 7.18L329.07 7.18Q328.90 7.53 328.66 8.06L328.66 8.06L328.66 8.06Q328.41 8.60 328.06 9.39L328.06 9.39L328.06 9.39Q328.59 9.31 329.06 9.26L329.06 9.26L329.06 9.26Q329.53 9.21 329.85 9.21Z"></path></g></svg>